<svg xmlns="http://www.w3.org/2000/svg" width="8.808" height="12" viewBox="0 0 8.808 12">
  <path id="Path_97579" data-name="Path 97579" d="M1.148-10.021h4.7a4.08,4.08,0,0,1,1.85.409A3.461,3.461,0,0,1,9.023-8.466a2.733,2.733,0,0,1,.491,1.572,2.742,2.742,0,0,1-.442,1.572A2.825,2.825,0,0,1,7.91-4.308v.131A3.255,3.255,0,0,1,9.4-3.113a2.779,2.779,0,0,1,.557,1.752A2.974,2.974,0,0,1,9.416.391,3.474,3.474,0,0,1,7.992,1.569a4.66,4.66,0,0,1-1.981.409H1.148ZM5.667-5.127a1.654,1.654,0,0,0,1.2-.409A1.346,1.346,0,0,0,7.3-6.567a1.386,1.386,0,0,0-.426-1.015,1.527,1.527,0,0,0-1.13-.409H3.408v2.865ZM5.929-.084A1.842,1.842,0,0,0,7.206-.51a1.417,1.417,0,0,0,.458-1.113,1.5,1.5,0,0,0-.458-1.13,1.87,1.87,0,0,0-1.342-.426H3.408V-.084Z" transform="translate(-1.148 10.021)" fill="#4e5b6a"/>
</svg>
