<svg xmlns="http://www.w3.org/2000/svg" width="16.846" height="14" viewBox="0 0 16.846 14">
  <g id="undo" transform="translate(0 0)">
    <g id="Group_52333" data-name="Group 52333" transform="translate(11.981 0)">
      <g id="Group_52332" data-name="Group 52332" transform="translate(0 0)">
        <path id="Path_97577" data-name="Path 97577" d="M.17,51.478l3.093-3.54L.17,44.4a.689.689,0,1,1,1.037-.906L4.7,47.484a.688.688,0,0,1,0,.906L1.207,52.384A.689.689,0,0,1,.17,51.478Z" transform="translate(0 -43.255)" fill="#4e5b6a"/>
      </g>
    </g>
    <g id="Group_52335" data-name="Group 52335" transform="translate(0 3.993)">
      <g id="Group_52334" data-name="Group 52334" transform="translate(0 0)">
        <path id="Path_97578" data-name="Path 97578" d="M5,164.619H16.158a.689.689,0,0,1,0,1.377H5a3.626,3.626,0,1,0,0,7.253H15.24a.689.689,0,0,1,0,1.377H5a5,5,0,1,1,0-10.007Z" transform="translate(0 -164.619)" fill="#4e5b6a"/>
      </g>
    </g>
  </g>
</svg>
