<svg xmlns="http://www.w3.org/2000/svg" width="16.846" height="14" viewBox="0 0 16.846 14">
  <g id="undo" transform="translate(0 -43.255)">
    <g id="Group_52333" data-name="Group 52333" transform="translate(0 43.255)">
      <g id="Group_52332" data-name="Group 52332" transform="translate(0 0)">
        <path id="Path_97577" data-name="Path 97577" d="M4.7,51.478,1.6,47.937,4.7,44.4a.689.689,0,1,0-1.037-.906L.17,47.484a.688.688,0,0,0,0,.906l3.489,3.994A.689.689,0,0,0,4.7,51.478Z" transform="translate(0 -43.255)" fill="#4e5b6a"/>
      </g>
    </g>
    <g id="Group_52335" data-name="Group 52335" transform="translate(0 47.249)">
      <g id="Group_52334" data-name="Group 52334" transform="translate(0 0)">
        <path id="Path_97578" data-name="Path 97578" d="M11.843,164.619H.689a.689.689,0,1,0,0,1.377H11.843a3.626,3.626,0,1,1,0,7.253H1.607a.689.689,0,1,0,0,1.377H11.843a5,5,0,1,0,0-10.007Z" transform="translate(0 -164.619)" fill="#4e5b6a"/>
      </g>
    </g>
  </g>
</svg>
