<svg xmlns="http://www.w3.org/2000/svg" width="10.655" height="14" viewBox="0 0 10.655 14">
  <path id="Path_97581" data-name="Path 97581" d="M3.1,1.052A3.784,3.784,0,0,1,1.57-.327a3.8,3.8,0,0,1-.526-2.048l-.007-7.647H2.424l.007,7.7a2.707,2.707,0,0,0,.75,1.979A2.879,2.879,0,0,0,5.335.41,2.968,2.968,0,0,0,7.5-.341a2.65,2.65,0,0,0,.75-1.979l-.007-7.7H9.634l.007,7.647a3.986,3.986,0,0,1-.51,2.048,3.541,3.541,0,0,1-1.5,1.392,5.094,5.094,0,0,1-2.3.478A4.95,4.95,0,0,1,3.1,1.052ZM0,2.98H10.655v1H0Z" transform="translate(0 10.021)" fill="#4e5b6a"/>
</svg>
