<svg xmlns="http://www.w3.org/2000/svg" xmlns:xlink="http://www.w3.org/1999/xlink" width="30" height="31.222" viewBox="0 0 30 31.222">
  <defs>
    <linearGradient id="linear-gradient" x1="0.5" x2="0.5" y2="1" gradientUnits="objectBoundingBox">
      <stop offset="0" stop-color="#ffe6e6"/>
      <stop offset="1" stop-color="#ffbaba"/>
    </linearGradient>
  </defs>
  <g id="Group_47340" data-name="Group 47340" transform="translate(-10.022 -0.001)">
    <path id="Path_96663" data-name="Path 96663" d="M39.075,58.854l-2.139-.3a2.108,2.108,0,0,0-2.371,1.724L34.193,62.4A2.108,2.108,0,0,1,33.1,63.9L31.2,64.915a2.109,2.109,0,0,0-.906,2.789l.949,1.942a2.11,2.11,0,0,1,0,1.852l-.949,1.942a2.11,2.11,0,0,0,.906,2.789L33.1,77.242a2.109,2.109,0,0,1,1.088,1.5l.373,2.129a2.108,2.108,0,0,0,2.371,1.724l2.139-.3a2.1,2.1,0,0,1,.4-.018l.113-1.182A1.455,1.455,0,0,1,37.95,79.9l-.765-3.69a1.456,1.456,0,0,0-.751-1.034l-1.317-.7a1.456,1.456,0,0,1-.625-1.925l.655-1.34a1.457,1.457,0,0,0,0-1.279l-.655-1.34a1.456,1.456,0,0,1,.625-1.925l1.317-.7a1.456,1.456,0,0,0,.751-1.034l.735-3.718a1.455,1.455,0,0,1,1.637-1.19l.144-1.178a2.1,2.1,0,0,1-.625.006Z" transform="translate(-18.832 -54.96)" fill="url(#linear-gradient)"/>
    <path id="Path_96664" data-name="Path 96664" d="M25.022,31.224a3.316,3.316,0,0,1-2.313-.942l-1.553-1.5a.881.881,0,0,0-.742-.241l-2.139.3a3.413,3.413,0,0,1-.477.034,3.311,3.311,0,0,1-3.266-2.754l-.373-2.129a.884.884,0,0,0-.459-.632l-1.908-1.013a3.315,3.315,0,0,1-1.429-4.4L11.312,16a.885.885,0,0,0,0-.782l-.949-1.942a3.315,3.315,0,0,1,1.429-4.4L13.7,7.866a.884.884,0,0,0,.459-.632L14.533,5.1a3.313,3.313,0,0,1,3.743-2.72l2.139.3a.881.881,0,0,0,.741-.241l1.553-1.5a3.312,3.312,0,0,1,4.626,0l1.552,1.5a.881.881,0,0,0,.742.241l2.139-.3A3.313,3.313,0,0,1,35.51,5.1l.373,2.129a.884.884,0,0,0,.459.632L38.25,8.879a3.315,3.315,0,0,1,1.429,4.4l-.948,1.942a.884.884,0,0,0,0,.782l.949,1.942a3.315,3.315,0,0,1-1.429,4.4l-1.908,1.013a.884.884,0,0,0-.459.632L35.51,26.12a3.313,3.313,0,0,1-3.743,2.72l-2.139-.3a.881.881,0,0,0-.741.241l-1.553,1.5a3.316,3.316,0,0,1-2.313.942ZM20.547,26.09a3.3,3.3,0,0,1,2.306.937l1.552,1.5a.884.884,0,0,0,1.235,0l1.552-1.5a3.3,3.3,0,0,1,2.779-.9l2.139.3a.885.885,0,0,0,1-.727l.373-2.129A3.306,3.306,0,0,1,35.2,21.206l1.908-1.013a.886.886,0,0,0,.382-1.177l-.949-1.942a3.308,3.308,0,0,1,0-2.922l.949-1.942a.886.886,0,0,0-.382-1.177L35.2,10.02a3.307,3.307,0,0,1-1.717-2.365l-.373-2.129a.885.885,0,0,0-1-.727l-2.139.3a3.305,3.305,0,0,1-2.779-.9L25.639,2.7a.884.884,0,0,0-1.235,0L22.852,4.2a3.3,3.3,0,0,1-2.779.9l-2.139-.3a.885.885,0,0,0-1,.727l-.373,2.129a3.307,3.307,0,0,1-1.717,2.365l-1.908,1.013a.886.886,0,0,0-.382,1.177l.949,1.942a3.308,3.308,0,0,1,0,2.923l-.949,1.942a.887.887,0,0,0,.382,1.177l1.908,1.013a3.307,3.307,0,0,1,1.717,2.365l.373,2.129a.884.884,0,0,0,1,.727l2.139-.3A3.379,3.379,0,0,1,20.547,26.09Z" transform="translate(0)" fill="#ff6161"/>
    <path id="Path_96665" data-name="Path 96665" d="M233.532,146.918a1.219,1.219,0,0,1-1.219-1.219v-7.437a1.219,1.219,0,0,1,2.438,0V145.7A1.219,1.219,0,0,1,233.532,146.918Zm0,4.816a1.524,1.524,0,1,0-1.524-1.524,1.524,1.524,0,0,0,1.524,1.524" transform="translate(-208.449 -128.684)" fill="#ff6161"/>
  </g>
</svg>
