<svg xmlns="http://www.w3.org/2000/svg" width="40" height="40" viewBox="0 0 40 40">
  <g id="ic_Photo_36" transform="translate(-162 -168)">
    <g id="Group_46840" data-name="Group 46840" transform="translate(162 168)">
      <rect id="Rectangle_21657" data-name="Rectangle 21657" width="40" height="40" rx="20" fill="#f1f2f7"/>
    </g>
    <g id="photo-camera" transform="translate(170.75 177.849)">
      <g id="Group_48036" data-name="Group 48036">
        <g id="Group_48035" data-name="Group 48035">
          <path id="Path_97264" data-name="Path 97264" d="M371.879,177a.879.879,0,0,0,0,1.758h.923a.879.879,0,0,0,0-1.758Z" transform="translate(-354.697 -170.32)" fill="#62768e"/>
          <path id="Path_97265" data-name="Path 97265" d="M21.621,38.271a.879.879,0,0,0,.879-.879V31.68a3.52,3.52,0,0,0-3.516-3.516H16.333a.879.879,0,0,1-.832-.6l-.266-.778A2.636,2.636,0,0,0,12.738,25H7.123a2.643,2.643,0,0,0-2.48,1.741l-.3.842a.881.881,0,0,1-.827.58h0A3.52,3.52,0,0,0,0,31.68V41.791a3.52,3.52,0,0,0,3.516,3.516H18.984A3.52,3.52,0,0,0,22.5,41.791a.879.879,0,0,0-1.758,0,1.76,1.76,0,0,1-1.758,1.758H3.516a1.76,1.76,0,0,1-1.758-1.758V31.68a1.76,1.76,0,0,1,1.758-1.758h0a2.643,2.643,0,0,0,2.471-1.741l.3-.842a.881.881,0,0,1,.827-.58h5.614a.879.879,0,0,1,.832.6l.266.778a2.636,2.636,0,0,0,2.5,1.79h2.652a1.76,1.76,0,0,1,1.758,1.758v5.713a.879.879,0,0,0,.878.878Z" transform="translate(0 -25)" fill="#62768e"/>
          <path id="Path_97266" data-name="Path 97266" d="M102.493,157a5.493,5.493,0,1,0,5.493,5.493A5.493,5.493,0,0,0,102.493,157Zm0,9.229a3.736,3.736,0,1,1,3.736-3.736,3.736,3.736,0,0,1-3.736,3.736Z" transform="translate(-92.738 -151.199)" fill="#62768e"/>
        </g>
      </g>
    </g>
  </g>
</svg>
