<svg xmlns="http://www.w3.org/2000/svg" id="artboard-svg" width="27" height="28" viewBox="0 0 27 28" style="width:1365.99px;height:767.997px"><defs><style>.cls-1 { fill: #e4e4e4; } .cls-2 { clip-path: url(#clip-Danh_sách_học_sinh_Tìm_kiếm_1); } .cls-11, .cls-3, .cls-9 { fill: #fff; } .cls-3 { stroke: #e4e4e4; } .cls-12, .cls-4, .cls-6, .cls-7 { fill: #707070; } .cls-25, .cls-4, .cls-8 { font-size: 14px; } .cls-12, .cls-13, .cls-25, .cls-4, .cls-8 { font-family: GoogleSans-Regular, Google Sans; } .cls-5, .cls-8 { fill: #989898; } .cls-26, .cls-6 { font-size: 20px; } .cls-26, .cls-6, .cls-7 { font-family: GoogleSans-Bold, Google Sans; font-weight: 700; } .cls-7 { font-size: 36px; } .cls-10, .cls-7 { opacity: 0.3; } .cls-9 { stroke: #ff5e00; } .cls-12, .cls-13 { font-size: 16px; } .cls-13, .cls-25, .cls-26, .cls-27 { fill: #6133c2; } .cls-14 { fill: url(#linear-gradient); } .cls-15 { clip-path: url(#clip-path); } .cls-16 { fill: #e7886e; } .cls-17 { fill: #fbe29f; } .cls-18 { fill: #ffcabd; } .cls-19 { fill: #ffd3bc; } .cls-20 { fill: #fccb88; } .cls-21 { fill: #ff9db0; } .cls-22 { fill: #423e4f; } .cls-23 { fill: #e27858; } .cls-24 { fill: #f5f5f5; } .cls-28 { stroke: none; } .cls-29 { fill: none; } .cls-30 { filter: url(#Rectangle_21785); } .cls-31 { filter: url(#Rectangle_21590); }</style><filter id="Rectangle_21590" width="1384" height="82" x="-9" y="-6" filterUnits="userSpaceOnUse"><feOffset dy="3"/><feGaussianBlur result="blur" stdDeviation="3"/><feFlood flood-opacity=".161"/><feComposite in2="blur" operator="in"/><feComposite in="SourceGraphic"/></filter><linearGradient id="linear-gradient" x1=".5" x2=".5" y2="1" gradientUnits="objectBoundingBox"><stop offset="0" stop-color="#6c26ff"/><stop offset="1" stop-color="#009fe5"/></linearGradient><clipPath id="clip-path"><circle id="Ellipse_5811" cx="23.5" cy="23.5" r="23.5" class="cls-1" data-name="Ellipse 5811" transform="translate(1596 417)"/></clipPath><filter id="Rectangle_21785" width="164" height="698" x="-9" y="82" filterUnits="userSpaceOnUse"><feOffset dy="3"/><feGaussianBlur result="blur-2" stdDeviation="3"/><feFlood flood-opacity=".161"/><feComposite in2="blur-2" operator="in"/><feComposite in="SourceGraphic"/></filter><clipPath id="clip-Danh_sách_học_sinh_Tìm_kiếm_1"><path d="M0 0h1366v768H0z"/></clipPath></defs><g transform="translate(-1056 -99)"><g id="Danh_sách_học_sinh_Tìm_kiếm_1" class="cls-2" data-name="Danh sách học sinh – Tìm kiếm – 1"><g id="Group_47244" data-name="Group 47244" transform="translate(875)"><g id="ic_timkiem" transform="translate(181.804 100)"><path id="Path_96633" d="M10.079 19.766a9.883 9.883 0 1 1 9.883-9.883 9.894 9.894 0 0 1-9.883 9.883zm0-17.893a8.01 8.01 0 1 0 8.009 8.01 8.019 8.019 0 0 0-8.009-8.01z" class="cls-5" data-name="Path 96633"/><path id="Path_96634" d="M387.824 388.957a.934.934 0 0 1-.662-.274l-4.192-4.192a.937.937 0 0 1 1.325-1.325l4.192 4.192a.937.937 0 0 1-.662 1.6z" class="cls-5" data-name="Path 96634" transform="translate(-364.583 -364.957)"/></g></g></g></g></svg>