<svg id="ic_ảnh" xmlns="http://www.w3.org/2000/svg" width="16" height="16" viewBox="0 0 16 16">
  <path id="Path_96923" data-name="Path 96923" d="M12.25,16H3.75A3.754,3.754,0,0,1,0,12.25V3.75A3.754,3.754,0,0,1,3.75,0h8.5A3.754,3.754,0,0,1,16,3.75v8.5A3.754,3.754,0,0,1,12.25,16ZM3.75,1.25a2.5,2.5,0,0,0-2.5,2.5v8.5a2.5,2.5,0,0,0,2.5,2.5h8.5a2.5,2.5,0,0,0,2.5-2.5V3.75a2.5,2.5,0,0,0-2.5-2.5Zm6.625,4.687a.781.781,0,1,0-.781-.781A.781.781,0,0,0,10.375,5.938Z" fill="#4e5b6a"/>
  <path id="Path_96924" data-name="Path 96924" d="M91.848,221.823a.625.625,0,0,0-.882.06l-1.058,1.212a.746.746,0,0,1-1.163.091s-2.907-2.753-2.921-2.764a2.182,2.182,0,0,0-2.82.089c-.013.012-1.836,1.948-1.836,1.948a.625.625,0,1,0,.91.856l1.778-1.89a.935.935,0,0,1,1.172-.038s2.905,2.751,2.92,2.763a2.285,2.285,0,0,0,1.393.518,2.1,2.1,0,0,0,1.493-.736l.009-.01,1.063-1.217A.625.625,0,0,0,91.848,221.823Z" transform="translate(-78.468 -213.075)" fill="#4e5b6a"/>
</svg>
