<svg xmlns="http://www.w3.org/2000/svg" width="117.331" height="128" viewBox="0 0 117.331 128">
  <g id="Group_52076" data-name="Group 52076" transform="translate(-856 -886)">
    <circle id="Ellipse_112" data-name="Ellipse 112" cx="58.666" cy="58.666" r="58.666" transform="translate(856 886)" fill="#ffd553"/>
    <g id="Group_1" data-name="Group 1" transform="translate(941.14 980.171)">
      <path id="Path_1" data-name="Path 1" d="M2073.155,1153.394s2.569-4.225,5.831-4.672c3.6-.494,7.37,2.444,6.583,7.5-.921,5.923-9.016,5.158-9.016,5.158Z" transform="translate(-2073.155 -1148.668)" fill="#fff"/>
    </g>
    <g id="Group_2" data-name="Group 2" transform="translate(941.139 981.637)" opacity="0.3">
      <path id="Path_2" data-name="Path 2" d="M2085.591,1164.613h0c-.788,6.113-9.041,5.332-9.041,5.332l-3.4-7.988a14.18,14.18,0,0,1,2.867-3.26l1.8,4.485a4.661,4.661,0,0,0,7.613,1.6Q2085.512,1164.7,2085.591,1164.613Z" transform="translate(-2073.152 -1158.697)" fill="#5844bc"/>
    </g>
    <g id="Group_3" data-name="Group 3" transform="translate(940.44 979.472)">
      <path id="Path_3" data-name="Path 3" d="M2073.5,1158.044c-.393,0-.762-.018-1.1-.049a.7.7,0,0,1-.578-.422l-3.4-7.988a.7.7,0,0,1,.046-.637c.112-.184,2.782-4.515,6.333-5a6.56,6.56,0,0,1,5.55,1.892,7.292,7.292,0,0,1,1.82,6.411C2081.456,1156.875,2076.675,1158.044,2073.5,1158.044Zm-.556-1.417c1.583.063,7.143-.045,7.851-4.594a5.932,5.932,0,0,0-1.436-5.216,5.158,5.158,0,0,0-4.361-1.486c-2.429.333-4.51,3.127-5.137,4.05Z" transform="translate(-2068.371 -1143.885)" fill="#5844bc"/>
    </g>
    <g id="Group_4" data-name="Group 4" transform="translate(884.853 962.581)">
      <path id="Path_4" data-name="Path 4" d="M1750.971,1065.493h-62.857a138.477,138.477,0,0,1,6.108-21.617q.776-2.135,1.556-4.142c1.6-4.129,3.171-7.794,4.467-10.68,7.224-.351,30.531-1.355,38.542-.115.92,2.042,1.979,4.484,3.093,7.211.636,1.559,1.29,3.212,1.946,4.935A144.939,144.939,0,0,1,1750.971,1065.493Z" transform="translate(-1688.114 -1028.337)" fill="#fff"/>
    </g>
    <g id="Group_5" data-name="Group 5" transform="translate(884.154 955.913)">
      <path id="Path_5" data-name="Path 5" d="M1746.885,1027.25h-62.858a.7.7,0,0,1-.688-.825c3.734-20.365,15.237-43.087,15.352-43.314a.7.7,0,1,1,1.246.635c-.113.222-11.217,22.16-15.067,42.106h61.172c-3.851-19.952-14.954-41.884-15.067-42.106a.7.7,0,0,1,1.246-.635c.116.227,11.618,22.949,15.352,43.314a.7.7,0,0,1-.688.825Z" transform="translate(-1683.327 -982.728)" fill="#5844bc"/>
    </g>
    <g id="Group_6" data-name="Group 6" transform="translate(865.065 946.988)">
      <path id="Path_6" data-name="Path 6" d="M1587.027,941.446s-15.071-4.661-19.345-14.457c-3.731-8.553-6.914-4.217-6.914-4.217s-3.849-2.417-4.944,1.543c0,0-3.148-.4-3.077,3.7.047,2.707,4.665,24.42,27.312,24.848" transform="translate(-1552.747 -921.673)" fill="#fff"/>
    </g>
    <g id="Group_7" data-name="Group 7" transform="translate(864.366 946.289)">
      <path id="Path_7" data-name="Path 7" d="M1575.976,949.473h-.013c-12.185-.23-19.067-6.584-22.694-11.873-3.966-5.783-5.275-12.038-5.3-13.662a4.471,4.471,0,0,1,1.25-3.572,3.418,3.418,0,0,1,2.018-.833,3.315,3.315,0,0,1,1.88-2.064,4.546,4.546,0,0,1,3.429.351,3.258,3.258,0,0,1,2.554-.912c1.848.206,3.579,2.13,5.144,5.718,4.094,9.384,18.763,14.023,18.911,14.069a.7.7,0,0,1-.413,1.336c-.628-.194-15.428-4.871-19.779-14.846-1.766-4.047-3.268-4.8-4.006-4.885a2.083,2.083,0,0,0-1.706.806.7.7,0,0,1-.933.175,3.581,3.581,0,0,0-2.7-.505,2.244,2.244,0,0,0-1.2,1.643.7.7,0,0,1-.762.507,2.132,2.132,0,0,0-1.515.494,3.2,3.2,0,0,0-.774,2.5,29.466,29.466,0,0,0,5.059,12.9c5.006,7.3,12.262,11.09,21.567,11.266a.7.7,0,0,1-.013,1.4Z" transform="translate(-1547.963 -916.888)" fill="#5844bc"/>
    </g>
    <g id="Group_8" data-name="Group 8" transform="translate(870.834 954.021)">
      <circle id="Ellipse_1" data-name="Ellipse 1" cx="3.27" cy="3.27" r="3.27" transform="translate(0 0)" fill="#fe9882"/>
    </g>
    <g id="Group_9" data-name="Group 9" transform="translate(874.562 950.467)">
      <circle id="Ellipse_2" data-name="Ellipse 2" cx="1.22" cy="1.22" r="1.22" transform="translate(0 2.254) rotate(-67.5)" fill="#fe9882"/>
    </g>
    <g id="Group_10" data-name="Group 10" transform="translate(870.465 950.472)">
      <circle id="Ellipse_3" data-name="Ellipse 3" cx="1.22" cy="1.22" r="1.22" transform="translate(0 2.26) rotate(-67.914)" fill="#fe9882"/>
    </g>
    <g id="Group_11" data-name="Group 11" transform="translate(867.992 953.281)">
      <circle id="Ellipse_4" data-name="Ellipse 4" cx="1.22" cy="1.22" r="1.22" fill="#fe9882"/>
    </g>
    <g id="Group_12" data-name="Group 12" transform="translate(879.457 989.418)">
      <path id="Path_8" data-name="Path 8" d="M1669.63,1218.3c-2.8-7.927-14.818-10.025-17.966,2.856-2.412,9.871,5.246,12.143,5.246,12.143H1721.2s7.657-2.272,5.246-12.143c-3.147-12.881-15.168-10.783-17.966-2.856" transform="translate(-1651.195 -1211.924)" fill="#fff"/>
    </g>
    <g id="Group_13" data-name="Group 13" transform="translate(878.761 988.675)">
      <path id="Path_9" data-name="Path 9" d="M1665.346,1214.04a11.065,11.065,0,0,0-2.987-3.725,9.853,9.853,0,0,0-1.99-1.219,8.033,8.033,0,0,0-2.207-.663,7.461,7.461,0,0,0-4.447.651,8.508,8.508,0,0,0-1.9,1.29,10.479,10.479,0,0,0-1.514,1.785,14.868,14.868,0,0,0-1.9,4.39,15.738,15.738,0,0,0-.471,2.367,11.527,11.527,0,0,0-.061,2.374,8.141,8.141,0,0,0,1.546,4.308,7.775,7.775,0,0,0,1.635,1.62,8.023,8.023,0,0,0,.978.621c.171.089.343.177.517.254.087.04.174.075.261.11s.184.069.24.087l-.2-.029h64.285l-.2.029c.056-.017.158-.055.24-.087s.174-.07.261-.11c.175-.076.347-.164.517-.254a8.023,8.023,0,0,0,.978-.621,7.772,7.772,0,0,0,1.635-1.62,8.14,8.14,0,0,0,1.546-4.308,11.519,11.519,0,0,0-.061-2.374,15.738,15.738,0,0,0-.471-2.367,15.208,15.208,0,0,0-1.893-4.4,10.846,10.846,0,0,0-1.506-1.8,8.521,8.521,0,0,0-1.9-1.313,6.722,6.722,0,0,0-2.184-.668,7.3,7.3,0,0,0-2.285.055,9.314,9.314,0,0,0-4.145,1.946,10.6,10.6,0,0,0-1.668,1.658,16.168,16.168,0,0,0-1.37,2.008l0,.006a.236.236,0,0,1-.437-.161,7.845,7.845,0,0,1,.9-2.469c.114-.19.219-.389.349-.57l.393-.543c.141-.173.294-.338.442-.507s.317-.318.476-.478a9.081,9.081,0,0,1,4.822-2.339,9.314,9.314,0,0,1,2.726-.006,8.666,8.666,0,0,1,2.6.815,9.913,9.913,0,0,1,2.228,1.543,12.211,12.211,0,0,1,1.72,2.051,16.578,16.578,0,0,1,2.078,4.806,17.085,17.085,0,0,1,.509,2.565,12.911,12.911,0,0,1,.067,2.649,9.545,9.545,0,0,1-1.819,5.034,9.168,9.168,0,0,1-1.926,1.91,9.4,9.4,0,0,1-1.145.727c-.2.105-.4.208-.613.3-.1.047-.211.091-.319.134s-.208.081-.352.125a.639.639,0,0,1-.187.029h-64.307a.655.655,0,0,1-.19-.029c-.144-.045-.239-.082-.352-.125s-.215-.087-.319-.134c-.21-.092-.412-.195-.613-.3a9.4,9.4,0,0,1-1.145-.727,9.163,9.163,0,0,1-1.927-1.91,9.546,9.546,0,0,1-1.819-5.034,12.92,12.92,0,0,1,.067-2.649,17.085,17.085,0,0,1,.509-2.565l.173-.628c.057-.209.137-.413.2-.62l.213-.618.251-.607a14.6,14.6,0,0,1,1.226-2.34,12.183,12.183,0,0,1,.8-1.073,11.672,11.672,0,0,1,.913-.991,9.919,9.919,0,0,1,2.226-1.565,8.636,8.636,0,0,1,5.35-.771,9.3,9.3,0,0,1,4.77,2.4,8.96,8.96,0,0,1,2.612,4.507.235.235,0,0,1-.437.161Z" transform="translate(-1646.434 -1206.842)" fill="#5844bc"/>
    </g>
    <g id="Group_14" data-name="Group 14" transform="translate(873.762 991.648)">
      <path id="Path_10" data-name="Path 10" d="M1679.505,1236.52c.525-4.912,2.362-8.4,5.319-9.015a4.282,4.282,0,0,1,3.193.729,3.621,3.621,0,0,1,3.883-.849,4.6,4.6,0,0,1,2.341,2.237,2.94,2.94,0,0,1,2.531,1.256c1.286,1.6,1.289,4.225,1.031,6.093-1.64,11.862-12.049,11.862-15.708,11.862h-54.014c-3.659,0-14.067,0-15.708-11.862-.258-1.868-.255-4.49,1.031-6.093a2.94,2.94,0,0,1,2.531-1.256,4.605,4.605,0,0,1,2.341-2.237,3.621,3.621,0,0,1,3.883.849,4.282,4.282,0,0,1,3.193-.729c2.956.616,4.794,4.1,5.319,9.015" transform="translate(-1612.239 -1227.18)" fill="#fff"/>
    </g>
    <g id="Group_15" data-name="Group 15" transform="translate(878.854 999.887)">
      <ellipse id="Ellipse_5" data-name="Ellipse 5" cx="3.809" cy="4.385" rx="3.809" ry="4.385" transform="matrix(0.998, -0.055, 0.055, 0.998, 0, 0.422)" fill="#fe9882"/>
    </g>
    <g id="Group_16" data-name="Group 16" transform="translate(875.951 998.396)">
      <ellipse id="Ellipse_6" data-name="Ellipse 6" cx="1.453" cy="1.695" rx="1.453" ry="1.695" transform="translate(0 0.415) rotate(-8.202)" fill="#fe9882"/>
    </g>
    <g id="Group_17" data-name="Group 17" transform="translate(879.762 995.272)">
      <ellipse id="Ellipse_7" data-name="Ellipse 7" cx="1.453" cy="1.695" rx="1.453" ry="1.695" transform="matrix(0.99, -0.143, 0.143, 0.99, 0, 0.415)" fill="#fe9882"/>
    </g>
    <g id="Group_18" data-name="Group 18" transform="translate(884.497 995.996)">
      <ellipse id="Ellipse_8" data-name="Ellipse 8" cx="1.453" cy="1.695" rx="1.453" ry="1.695" transform="matrix(0.99, -0.143, 0.143, 0.99, 0, 0.415)" fill="#fe9882"/>
    </g>
    <g id="Group_19" data-name="Group 19" transform="translate(946.056 999.887)">
      <ellipse id="Ellipse_9" data-name="Ellipse 9" cx="4.385" cy="3.809" rx="4.385" ry="3.809" transform="translate(0 8.757) rotate(-86.826)" fill="#fe9882"/>
    </g>
    <g id="Group_20" data-name="Group 20" transform="translate(953.692 998.396)">
      <ellipse id="Ellipse_10" data-name="Ellipse 10" cx="1.695" cy="1.453" rx="1.695" ry="1.453" transform="matrix(0.143, -0.99, 0.99, 0.143, 0, 3.356)" fill="#fe9882"/>
    </g>
    <g id="Group_21" data-name="Group 21" transform="translate(949.881 995.272)">
      <ellipse id="Ellipse_11" data-name="Ellipse 11" cx="1.695" cy="1.453" rx="1.695" ry="1.453" transform="translate(0 3.356) rotate(-81.798)" fill="#fe9882"/>
    </g>
    <g id="Group_22" data-name="Group 22" transform="translate(945.146 995.996)">
      <ellipse id="Ellipse_12" data-name="Ellipse 12" cx="1.695" cy="1.453" rx="1.695" ry="1.453" transform="translate(0 3.356) rotate(-81.798)" fill="#fe9882"/>
    </g>
    <g id="Group_23" data-name="Group 23" transform="translate(873.063 990.907)">
      <path id="Path_11" data-name="Path 11" d="M1675.193,1232.169a15.577,15.577,0,0,1,.413-3.683c.08-.3.147-.609.25-.909l.147-.451.176-.444c.11-.3.262-.585.4-.877.074-.143.163-.281.244-.422a4.219,4.219,0,0,1,.264-.414,6.374,6.374,0,0,1,1.359-1.481,5.08,5.08,0,0,1,1.851-.952,4.227,4.227,0,0,1,1.066-.176,5,5,0,0,1,1.075.093,5.13,5.13,0,0,1,1.006.323c.161.069.317.148.472.232.077.044.153.087.23.136s.144.092.246.167l-1.038.122c.032-.038.051-.058.069-.078s.039-.042.057-.06c.037-.036.074-.075.111-.107.073-.068.149-.131.225-.19a4.258,4.258,0,0,1,.477-.322,4.327,4.327,0,0,1,1.053-.427,4.741,4.741,0,0,1,2.2-.018c.175.046.342.083.522.138l.284.1c.092.039.178.085.267.129a4.315,4.315,0,0,1,.916.664,5.86,5.86,0,0,1,.705.806q.156.212.294.435c.095.154.174.29.268.48l-.742-.4a1.808,1.808,0,0,1,.192-.014c.054,0,.1,0,.155,0,.1,0,.2.012.294.024a3.349,3.349,0,0,1,.561.121,3.739,3.739,0,0,1,1.008.486,4.644,4.644,0,0,1,1.42,1.589,6.473,6.473,0,0,1,.676,1.913,10.512,10.512,0,0,1,.188,1.941,14.113,14.113,0,0,1-.117,1.909c-.038.316-.1.622-.148.933s-.117.618-.187.926a15.471,15.471,0,0,1-1.267,3.585,11.942,11.942,0,0,1-5.353,5.38,18.135,18.135,0,0,1-7.308,1.777c-.621.033-1.243.044-1.855.045H1623.7c-.612,0-1.234-.011-1.855-.045a18.133,18.133,0,0,1-7.308-1.777,11.938,11.938,0,0,1-5.353-5.38,15.471,15.471,0,0,1-1.267-3.585c-.07-.308-.143-.615-.187-.926s-.109-.617-.147-.933a14.153,14.153,0,0,1-.117-1.909,10.491,10.491,0,0,1,.188-1.941,6.462,6.462,0,0,1,.676-1.913,4.623,4.623,0,0,1,1.423-1.583,3.74,3.74,0,0,1,1.007-.482,3.326,3.326,0,0,1,.559-.119c.1-.012.193-.02.293-.023.052,0,.1,0,.154,0a1.816,1.816,0,0,1,.19.014l-.729.391c.094-.188.174-.324.269-.477s.191-.292.295-.433a5.721,5.721,0,0,1,.707-.8,4.294,4.294,0,0,1,.914-.654c.088-.043.175-.088.266-.126l.282-.1c.179-.053.346-.089.52-.133a4.753,4.753,0,0,1,2.179.029,4.282,4.282,0,0,1,1.041.423,4.468,4.468,0,0,1,.472.317c.076.059.15.12.223.187.036.031.073.069.11.1.018.017.037.037.057.058s.037.039.068.076l-.974-.115c.1-.073.163-.116.242-.165s.151-.091.227-.136c.153-.084.308-.163.467-.232a5.276,5.276,0,0,1,1-.326,5.011,5.011,0,0,1,1.067-.111,4.232,4.232,0,0,1,1.067.158,5.016,5.016,0,0,1,1.874.922,6.4,6.4,0,0,1,1.386,1.475,3.727,3.727,0,0,1,.27.415c.082.142.171.281.246.425.14.292.3.577.412.877l.177.447.15.453c.109.3.17.61.25.914a13.4,13.4,0,0,1,.337,3.705.236.236,0,0,1-.464.049c-.321-1.169-.63-2.316-1.038-3.409-.1-.271-.2-.544-.32-.807l-.167-.4-.19-.382c-.118-.26-.265-.5-.4-.744-.071-.12-.152-.232-.227-.349a3.7,3.7,0,0,0-.236-.337l-.248-.323-.272-.294a2.9,2.9,0,0,0-.284-.275,2.32,2.32,0,0,0-.3-.251,3.786,3.786,0,0,0-1.347-.689,2.783,2.783,0,0,0-.719-.13,3.542,3.542,0,0,0-.735.059,3.835,3.835,0,0,0-.727.228c-.119.049-.234.107-.347.166-.055.032-.111.062-.163.095s-.112.072-.135.087l-.974-.115-.011-.011-.025-.026c-.02-.019-.037-.038-.06-.058-.042-.04-.088-.078-.135-.116a2.587,2.587,0,0,0-.305-.208,2.874,2.874,0,0,0-.694-.281,3.358,3.358,0,0,0-1.542-.013c-.129.034-.269.064-.39.1l-.16.058c-.053.022-.1.052-.158.076a2.9,2.9,0,0,0-.607.437,4.328,4.328,0,0,0-.535.606c-.082.111-.16.226-.233.343s-.147.248-.193.34a.711.711,0,0,1-.641.392h-.2c-.052,0-.106.006-.161.013a1.974,1.974,0,0,0-.33.071,2.34,2.34,0,0,0-.627.3,3.236,3.236,0,0,0-.983,1.1,6.828,6.828,0,0,0-.687,3.186,12.766,12.766,0,0,0,.106,1.722c.034.287.092.577.137.865s.109.574.173.858a14.084,14.084,0,0,0,1.151,3.263,10.545,10.545,0,0,0,4.742,4.768,16.755,16.755,0,0,0,6.745,1.625c.591.032,1.183.042,1.785.043h54.618c.6,0,1.194-.011,1.785-.043a16.756,16.756,0,0,0,6.745-1.625,10.545,10.545,0,0,0,4.742-4.768,14.073,14.073,0,0,0,1.151-3.263c.065-.284.132-.568.173-.858s.1-.578.137-.865a12.726,12.726,0,0,0,.106-1.722,6.823,6.823,0,0,0-.687-3.186,3.215,3.215,0,0,0-.986-1.1,2.337,2.337,0,0,0-.627-.3,1.93,1.93,0,0,0-.328-.069c-.055-.007-.108-.01-.159-.012l-.107,0h-.078a.733.733,0,0,1-.664-.4c-.046-.091-.123-.226-.194-.337s-.152-.231-.234-.341a4.183,4.183,0,0,0-.537-.6,2.867,2.867,0,0,0-.6-.427c-.053-.023-.1-.052-.156-.073l-.157-.055c-.12-.034-.259-.062-.387-.1a3.368,3.368,0,0,0-1.522.024,2.838,2.838,0,0,0-.681.277,2.794,2.794,0,0,0-.3.2c-.047.037-.092.074-.133.113-.022.019-.039.038-.058.056s-.018.018-.024.025-.016.017-.009.009l-1.038.122c-.02-.014-.082-.057-.13-.086s-.107-.063-.161-.094c-.112-.06-.225-.117-.343-.167a3.978,3.978,0,0,0-.717-.231,3.554,3.554,0,0,0-.727-.076,2.762,2.762,0,0,0-.719.111,4.594,4.594,0,0,0-2.5,1.8,11.611,11.611,0,0,0-1.564,3.03,27.756,27.756,0,0,0-.962,3.432.234.234,0,0,1-.463-.049Z" transform="translate(-1607.46 -1222.112)" fill="#5844bc"/>
    </g>
    <g id="Group_24" data-name="Group 24" transform="translate(873.762 995.86)" opacity="0.3">
      <path id="Path_12" data-name="Path 12" d="M1697.8,1260.021c-1.64,11.864-12.047,11.864-15.707,11.864h-54.014c-3.659,0-14.068,0-15.708-11.864a11.549,11.549,0,0,1,.087-4.023c1.89,11.292,12.021,11.292,15.62,11.292h.046a12.147,12.147,0,0,0,4.552-1.159c2.178-.946,3.1-2.187,3.729-2.191.8-.005,3.685,2.946,9.142,3.35h20.463c5.456-.4,8.341-3.355,9.141-3.35.624,0,1.551,1.245,3.729,2.191a13.044,13.044,0,0,0,4.306,1.152h.007c4.231-.082,12.8-.995,14.517-11.287A11.525,11.525,0,0,1,1697.8,1260.021Z" transform="translate(-1612.239 -1255.996)" fill="#5844bc"/>
    </g>
    <g id="Group_37" data-name="Group 37" transform="translate(879.43 909.057)">
      <g id="Group_25" data-name="Group 25" transform="translate(0.699 0.7)">
        <path id="Path_13" data-name="Path 13" d="M1676.609,679.991s-.934-11.9-9.182-12.912c-6.647-.817-12.292,3.727-11.569,10.345.93,8.515,9.011,10.79,9.011,10.79Z" transform="translate(-1655.796 -666.984)" fill="#fff"/>
      </g>
      <g id="Group_26" data-name="Group 26" transform="translate(0 0)">
        <path id="Path_14" data-name="Path 14" d="M1660.786,684.825a.7.7,0,0,1-.19-.026c-.085-.024-8.546-2.506-9.516-11.387a9.685,9.685,0,0,1,2.781-8.126,11.478,11.478,0,0,1,9.568-2.99c8.715,1.071,9.753,13.042,9.793,13.551a.7.7,0,0,1-1.394.11c-.009-.113-.99-11.342-8.57-12.273a10.088,10.088,0,0,0-8.415,2.6,8.314,8.314,0,0,0-2.373,6.978c.866,7.928,8.195,10.1,8.506,10.194a.7.7,0,0,1-.19,1.372Z" transform="translate(-1651.014 -662.195)" fill="#5844bc"/>
      </g>
      <g id="Group_27" data-name="Group 27" transform="translate(5.313 5.936)">
        <path id="Path_15" data-name="Path 15" d="M1698.944,710.044s-.52-6.623-5.111-7.187c-3.7-.455-6.842,2.074-6.44,5.759a7.26,7.26,0,0,0,5.016,6.006" transform="translate(-1687.359 -702.804)" fill="#fe9882"/>
      </g>
      <g id="Group_28" data-name="Group 28" transform="translate(5.313 5.936)">
        <path id="Path_16" data-name="Path 16" d="M1698.945,710.041l-5.467,3.829-1.068.748a7.261,7.261,0,0,1-5.016-6.007c-.4-3.684,2.74-6.213,6.441-5.759a4.624,4.624,0,0,1,3.007,1.657A11.028,11.028,0,0,1,1698.945,710.041Z" transform="translate(-1687.359 -702.799)" fill="#fe9882"/>
      </g>
      <g id="Group_29" data-name="Group 29" transform="translate(9.927 7.646)">
        <path id="Path_17" data-name="Path 17" d="M1725.891,720.029l-5.467,3.829a6.732,6.732,0,0,1-1.47-3.591,5.179,5.179,0,0,1,4.834-5.769A11.027,11.027,0,0,1,1725.891,720.029Z" transform="translate(-1718.92 -714.497)" fill="#fcb1a4"/>
      </g>
      <g id="Group_30" data-name="Group 30" transform="translate(4.614 5.236)">
        <path id="Path_18" data-name="Path 18" d="M1688.325,711.233a.693.693,0,0,1-.19-.026,7.9,7.9,0,0,1-5.521-6.6,5.7,5.7,0,0,1,1.639-4.777,6.693,6.693,0,0,1,5.582-1.751c5.1.627,5.7,7.533,5.723,7.826a.7.7,0,0,1-1.394.11c-.006-.078-.54-6.062-4.5-6.548a5.306,5.306,0,0,0-4.429,1.359,4.323,4.323,0,0,0-1.23,3.63,6.575,6.575,0,0,0,4.51,5.409.7.7,0,0,1-.189,1.372Z" transform="translate(-1682.575 -698.015)" fill="#5844bc"/>
      </g>
      <g id="Group_31" data-name="Group 31" transform="translate(51.853 0.7)">
        <path id="Path_19" data-name="Path 19" d="M2005.726,679.991s.934-11.9,9.182-12.912c6.648-.817,12.292,3.727,11.569,10.345-.93,8.515-9.01,10.79-9.01,10.79Z" transform="translate(-2005.726 -666.984)" fill="#fff"/>
      </g>
      <g id="Group_32" data-name="Group 32" transform="translate(51.153 0)">
        <path id="Path_20" data-name="Path 20" d="M2013.381,684.825a.7.7,0,0,1-.189-1.372c.311-.089,7.639-2.266,8.505-10.193a8.314,8.314,0,0,0-2.373-6.978,10.088,10.088,0,0,0-8.415-2.6c-7.58.931-8.561,12.16-8.57,12.273a.7.7,0,0,1-1.395-.11c.04-.509,1.079-12.48,9.793-13.551a11.476,11.476,0,0,1,9.568,2.99,9.686,9.686,0,0,1,2.781,8.126c-.97,8.881-9.431,11.363-9.516,11.387A.7.7,0,0,1,2013.381,684.825Z" transform="translate(-2000.942 -662.194)" fill="#5844bc"/>
      </g>
      <g id="Group_33" data-name="Group 33" transform="translate(56.467 5.936)">
        <path id="Path_21" data-name="Path 21" d="M2037.289,710.044s.52-6.623,5.111-7.187c3.7-.455,6.842,2.074,6.44,5.759a7.26,7.26,0,0,1-5.016,6.006" transform="translate(-2037.289 -702.804)" fill="#fe9882"/>
      </g>
      <g id="Group_34" data-name="Group 34" transform="translate(56.467 5.936)">
        <path id="Path_22" data-name="Path 22" d="M2037.289,710.041l5.467,3.829,1.068.748a7.261,7.261,0,0,0,5.016-6.007c.4-3.684-2.74-6.213-6.441-5.759a4.623,4.623,0,0,0-3.007,1.657A11.026,11.026,0,0,0,2037.289,710.041Z" transform="translate(-2037.289 -702.799)" fill="#fe9882"/>
      </g>
      <g id="Group_35" data-name="Group 35" transform="translate(56.467 7.646)">
        <path id="Path_23" data-name="Path 23" d="M2037.289,720.029l5.467,3.829a6.735,6.735,0,0,0,1.47-3.591,5.18,5.18,0,0,0-4.834-5.769A11.025,11.025,0,0,0,2037.289,720.029Z" transform="translate(-2037.289 -714.497)" fill="#fcb1a4"/>
      </g>
      <g id="Group_36" data-name="Group 36" transform="translate(55.767 5.237)">
        <path id="Path_24" data-name="Path 24" d="M2039.739,711.234a.7.7,0,0,1-.189-1.372,6.5,6.5,0,0,0,4.51-5.409,4.324,4.324,0,0,0-1.231-3.63,5.306,5.306,0,0,0-4.429-1.359c-3.965.487-4.494,6.488-4.5,6.548a.7.7,0,0,1-1.394-.11c.023-.294.623-7.2,5.723-7.826a6.7,6.7,0,0,1,5.582,1.751,5.7,5.7,0,0,1,1.639,4.777,7.9,7.9,0,0,1-5.521,6.6A.7.7,0,0,1,2039.739,711.234Z" transform="translate(-2032.505 -698.018)" fill="#5844bc"/>
      </g>
    </g>
    <g id="Group_38" data-name="Group 38" transform="translate(915.238 975.536)" opacity="0.25">
      <path id="Path_25" data-name="Path 25" d="M1912.763,1119.035c-1.6,10.1-9.273,10.658-10.336,10.779-2.683.307-4.474.833-5.036,2.593a4.093,4.093,0,0,0,.043,2.382s-2.612,2.134-.857,4.606c0,0-1.372,2.3,1.813,4.123,5.958,3.411,20.521,2.455,23.01-13.148,0,0,.85-8.41-2.048-11.972S1912.763,1119.035,1912.763,1119.035Z" transform="translate(-1895.971 -1116.965)" fill="#5844bc"/>
    </g>
    <g id="Group_39" data-name="Group 39" transform="translate(915.238 973.264)">
      <path id="Path_26" data-name="Path 26" d="M1912.763,1103.488c-1.6,10.1-9.273,10.658-10.336,10.779-2.683.307-4.474.833-5.036,2.593a4.093,4.093,0,0,0,.043,2.382s-2.612,2.134-.857,4.606c0,0-1.372,2.3,1.813,4.124,5.958,3.41,20.765,2.254,23.254-13.349,0,0,.606-8.209-2.292-11.771S1912.763,1103.488,1912.763,1103.488Z" transform="translate(-1895.971 -1101.418)" fill="#fff"/>
    </g>
    <g id="Group_40" data-name="Group 40" transform="translate(915.238 986.165)" opacity="0.25">
      <path id="Path_27" data-name="Path 27" d="M1921.4,1190.18c-2.489,15.6-17.052,16.558-23.01,13.147-3.185-1.822-1.813-4.122-1.813-4.122a2.964,2.964,0,0,1-.159-3.36c.031.051.066.1.1.15,0,0-1.373,2.3,1.813,4.124,5.555,3.18,18.589,2.564,22.346-10.179a.367.367,0,0,1,.72.1Z" transform="translate(-1895.97 -1189.676)" fill="#5844bc"/>
    </g>
    <g id="Group_41" data-name="Group 41" transform="translate(914.543 975.151)">
      <path id="Path_28" data-name="Path 28" d="M1908.933,1114.545a10.111,10.111,0,0,1-1.635,6.133,11.3,11.3,0,0,1-2.146,2.476,11.569,11.569,0,0,1-2.749,1.782,12.062,12.062,0,0,1-3.123.939c-.266.043-.546.077-.8.1s-.5.058-.743.1a13.366,13.366,0,0,0-1.436.273,5.049,5.049,0,0,0-1.258.483,2.324,2.324,0,0,0-.846.8,2.614,2.614,0,0,0-.326,1.15,3.612,3.612,0,0,0,.025.641c.015.107.032.215.056.319.011.053.024.1.037.155s.031.109.038.127a.715.715,0,0,1-.212.778l0,0c-.043.037-.121.111-.183.172s-.129.133-.188.205a3.844,3.844,0,0,0-.336.442,3.126,3.126,0,0,0-.432.955,1.987,1.987,0,0,0-.01.966,2.7,2.7,0,0,0,.419.92l.03.763c0-.006,0,.005-.009.02s-.012.023-.019.039-.027.057-.038.091a1.687,1.687,0,0,0-.063.2c-.022.066-.027.137-.044.2l-.021.207a1.825,1.825,0,0,0,.148.8,3.164,3.164,0,0,0,1.223,1.354,8.487,8.487,0,0,0,1.871.921,12.484,12.484,0,0,0,2.068.564,16.3,16.3,0,0,0,8.536-.694,14.3,14.3,0,0,0,6.763-5.137,14.455,14.455,0,0,0,1.976-3.844c.13-.338.224-.69.34-1.034l.182-.514.167-.522c.111-.349.267-.687.4-1.038a6.513,6.513,0,0,1,.516-1.037l.01-.015a.246.246,0,0,1,.451.089,6.464,6.464,0,0,1-.022,2.348l-.109.575-.16.563a9.189,9.189,0,0,1-.391,1.1c-.294.725-.634,1.431-.986,2.131-.194.341-.372.691-.58,1.025s-.42.666-.651.984a15.683,15.683,0,0,1-7.421,5.638,17.725,17.725,0,0,1-9.279.754,13.88,13.88,0,0,1-2.288-.625,9.821,9.821,0,0,1-2.173-1.077,5.793,5.793,0,0,1-.985-.83,2.333,2.333,0,0,1-.216-.257c-.068-.091-.141-.176-.2-.272a3.817,3.817,0,0,1-.326-.619,3.229,3.229,0,0,1-.252-1.4c.011-.119.019-.238.036-.356s.039-.235.074-.348a3.055,3.055,0,0,1,.109-.341c.019-.056.047-.113.071-.17.011-.028.027-.058.042-.089s.029-.059.056-.106l.031.763a4.1,4.1,0,0,1-.644-1.425,3.393,3.393,0,0,1,.016-1.6,4.515,4.515,0,0,1,.623-1.4,5.239,5.239,0,0,1,.448-.589c.079-.094.165-.182.25-.272s.169-.168.291-.27l-.215.78c-.036-.1-.052-.163-.074-.241s-.038-.147-.053-.219c-.033-.146-.056-.292-.076-.439a5,5,0,0,1-.035-.9,4.005,4.005,0,0,1,.517-1.783,3.727,3.727,0,0,1,1.354-1.3,6.389,6.389,0,0,1,1.606-.626,14.749,14.749,0,0,1,1.589-.3c.263-.04.522-.068.785-.1s.491-.055.732-.094a10.67,10.67,0,0,0,2.759-.829,9.434,9.434,0,0,0,2.394-1.57,10.2,10.2,0,0,0,1.808-2.221,16.861,16.861,0,0,0,1.3-2.6c.378-.909.715-1.845,1.15-2.8l0,0a.24.24,0,0,1,.458.078Z" transform="translate(-1891.215 -1114.326)" fill="#5844bc"/>
    </g>
    <g id="Group_42" data-name="Group 42" transform="translate(907.008 961.101)" opacity="0.5">
      <path id="Path_29" data-name="Path 29" d="M1871.4,1020.843c-.037.037-.079.068-.114.108-7.275,8.495-27.8,7.67-30.211,4.829-2.68-3.152-.976-5.8.678-7.35l.967-.026c11.921-.318,26.715-.39,28.1,1.145a.5.5,0,0,1,.065.091A6.97,6.97,0,0,1,1871.4,1020.843Z" transform="translate(-1839.671 -1018.218)" fill="#fff"/>
    </g>
    <g id="Group_43" data-name="Group 43" transform="translate(883.083 911.799)">
      <path id="Path_30" data-name="Path 30" d="M1709.051,738.572c16.536,0,25.655-7.237,29.946-12.163a12.692,12.692,0,0,0,3.091-8.9c-.423-9.77-3-15.541-7.952-23.046a30.036,30.036,0,0,0-50.17,0c-4.954,7.505-7.529,13.276-7.952,23.046a12.692,12.692,0,0,0,3.091,8.9C1683.4,731.336,1692.514,738.576,1709.051,738.572Z" transform="translate(-1676.002 -680.952)" fill="#fff"/>
    </g>
    <g id="Group_44" data-name="Group 44" transform="translate(883.126 947.378)" opacity="0.25">
      <path id="Path_31" data-name="Path 31" d="M1739.291,934.024c-4.29,4.927-13.409,12.166-29.946,12.162s-25.654-7.236-29.946-12.162a12.69,12.69,0,0,1-3.089-8.9c.012-.266.024-.53.038-.79a12.646,12.646,0,0,0,3.051,7.184c4.292,4.926,13.411,12.166,29.946,12.162s25.656-7.236,29.946-12.162a12.649,12.649,0,0,0,3.052-7.184c.014.26.026.525.039.79A12.685,12.685,0,0,1,1739.291,934.024Z" transform="translate(-1676.298 -924.339)" fill="#5844bc"/>
    </g>
    <g id="Group_45" data-name="Group 45" transform="translate(882.426 910.906)">
      <path id="Path_32" data-name="Path 32" d="M1705.269,733.861h-.024a44.281,44.281,0,0,1-19.864-4.306,34.46,34.46,0,0,1-10.6-8.1,13.343,13.343,0,0,1-3.262-9.385c.436-10.059,3.171-15.985,8.066-23.4a30.735,30.735,0,0,1,51.337,0c4.9,7.417,7.631,13.342,8.067,23.4a13.341,13.341,0,0,1-3.262,9.385,34.462,34.462,0,0,1-10.6,8.1A44.285,44.285,0,0,1,1705.269,733.861Zm-.012-1.4h.012c16.552,0,25.528-7.469,29.407-11.923a11.948,11.948,0,0,0,2.919-8.405c-.422-9.734-3.08-15.484-7.837-22.691a29.336,29.336,0,0,0-49,0c-4.757,7.207-7.415,12.958-7.837,22.691a11.948,11.948,0,0,0,2.919,8.405c3.879,4.453,12.856,11.923,29.407,11.923Z" transform="translate(-1671.51 -674.842)" fill="#5844bc"/>
    </g>
    <g id="Group_46" data-name="Group 46" transform="translate(907.694 944.705)">
      <path id="Path_33" data-name="Path 33" d="M1861.288,913.17a8.467,8.467,0,1,1-16.925,0c0-4.827,3.789-7.116,8.462-7.116S1861.288,908.343,1861.288,913.17Z" transform="translate(-1844.363 -906.054)" fill="#f9d9c2"/>
    </g>
    <g id="Group_47" data-name="Group 47" transform="translate(911.284 952.973)">
      <path id="Path_34" data-name="Path 34" d="M1878.664,963.015c-.274,1.506-3.5,3.076-4.874-.4h0c-1.372,3.479-4.6,1.909-4.874.4" transform="translate(-1868.917 -962.612)" fill="#f9d9c2"/>
    </g>
    <g id="Group_48" data-name="Group 48" transform="translate(907.878 905.909)">
      <path id="Path_35" data-name="Path 35" d="M1845.622,648.519s4.813-6.785,10.613-7.771c4.78-.812.348,4.32.348,4.32s4.473-3.481,6.524-1.972c2.03,1.493-2.349,3.654-1.073,5.19" transform="translate(-1845.622 -640.661)" fill="#fff"/>
    </g>
    <g id="Group_49" data-name="Group 49" transform="translate(907.179 905.206)">
      <path id="Path_36" data-name="Path 36" d="M1841.537,645.11a.7.7,0,0,1-.57-1.1c.2-.287,5.05-7.033,11.066-8.056.546-.093,2.207-.376,2.835.739a2.371,2.371,0,0,1-.092,2.039c1.533-.739,3.385-1.242,4.66-.3a1.881,1.881,0,0,1,.813,1.246,3.568,3.568,0,0,1-1.054,2.495c-.658.88-.916,1.315-.707,1.567a.7.7,0,0,1-1.076.893c-.948-1.142-.017-2.388.664-3.3.374-.5.839-1.122.791-1.452a.565.565,0,0,0-.258-.324c-1.323-.973-4.627,1.143-5.681,1.961a.7.7,0,0,1-.959-1.009c1.051-1.22,1.884-2.769,1.681-3.128-.031-.054-.356-.221-1.382-.047-5.441.925-10.113,7.421-10.16,7.486A.7.7,0,0,1,1841.537,645.11Z" transform="translate(-1840.838 -635.849)" fill="#5844bc"/>
    </g>
    <g id="Group_50" data-name="Group 50" transform="translate(949.96 928.337)">
      <path id="Path_37" data-name="Path 37" d="M2133.6,794.484a3.887,3.887,0,0,0-.107-.392l.037-.007Z" transform="translate(-2133.493 -794.085)" fill="#4da2ff"/>
    </g>
    <g id="Group_51" data-name="Group 51" transform="translate(911.284 952.973)">
      <path id="Path_38" data-name="Path 38" d="M1878.664,963.015c-.274,1.506-3.5,3.076-4.874-.4h0c-1.372,3.479-4.6,1.909-4.874.4" transform="translate(-1868.917 -962.612)" fill="#f9d9c2"/>
    </g>
    <g id="Group_52" data-name="Group 52" transform="translate(898.773 968.311)">
      <path id="Path_39" data-name="Path 39" d="M1783.335,1068.649q.039-.593.124-1.108C1783.421,1068.13,1783.347,1068.578,1783.335,1068.649Z" transform="translate(-1783.335 -1067.541)" fill="#ef5050"/>
    </g>
    <g id="Group_53" data-name="Group 53" transform="translate(903.985 963.504)">
      <path id="Path_40" data-name="Path 40" d="M1819.042,1034.676a.1.1,0,0,1-.056-.023C1819.063,1034.665,1819.085,1034.676,1819.042,1034.676Z" transform="translate(-1818.986 -1034.653)" fill="#ef5050"/>
    </g>
    <g id="Group_54" data-name="Group 54" transform="translate(912.853 946.824)">
      <path id="Path_41" data-name="Path 41" d="M1886.258,921.489c0,1.825-3.3,2.645-3.3,2.645s-3.3-.82-3.3-2.645c0-.937,3.3-.937,3.3-.937S1886.258,920.552,1886.258,921.489Z" transform="translate(-1879.65 -920.552)" fill="#5844bc"/>
    </g>
    <g id="Group_1126" data-name="Group 1126" transform="translate(896.712 899.135)">
      <g id="Group_1120" data-name="Group 1120" transform="translate(0 0)">
        <g id="Group_1118" data-name="Group 1118" transform="translate(6.4 6.298)">
          <path id="Path_932" data-name="Path 932" d="M1817.074,644.32l.257,5.045a15.21,15.21,0,0,0,13.367,5.492c8.716-.88,10.147-5.953,10.147-5.953L1840,641.7Z" transform="translate(-1816.481 -641.07)" fill="#8a6bf6"/>
          <path id="Path_933" data-name="Path 933" d="M1825.615,651.843a15.645,15.645,0,0,1-8.644-2.592,14.671,14.671,0,0,1-3.561-3.215l-.1-.136-.293-5.746,24.013-2.747.928,7.88-.031.108c-.063.222-1.639,5.454-10.635,6.362A16.691,16.691,0,0,1,1825.615,651.843Zm-11.191-6.35a14.786,14.786,0,0,0,12.754,5.137c7.583-.766,9.379-4.78,9.626-5.448l-.768-6.521-21.833,2.5Z" transform="translate(-1813.017 -637.406)" fill="#5844bc"/>
        </g>
        <g id="Group_1119" data-name="Group 1119">
          <path id="Path_934" data-name="Path 934" d="M1790.52,598.2a1.891,1.891,0,0,0-.8.119l-16.03,6.31c-.825.325-.749,1.064.134,1.291,4.307,1.1,14.142,3.71,18.267,5.531a1.869,1.869,0,0,0,1.489-.04l15.541-7.8c.7-.353.575-1.018-.238-1.234C1804.591,601.239,1793.717,598.415,1790.52,598.2Z" transform="translate(-1772.544 -597.631)" fill="#8a6bf6"/>
          <path id="Path_935" data-name="Path 935" d="M1789.47,608.844a2.3,2.3,0,0,1-.922-.183c-4.113-1.816-14.083-4.452-18.179-5.5a1.349,1.349,0,0,1-1.134-1.141,1.277,1.277,0,0,1,.933-1.226l16.03-6.309a2.471,2.471,0,0,1,1.049-.157c3.228.215,13.989,3,18.466,4.193a1.348,1.348,0,0,1,1.112,1.1,1.219,1.219,0,0,1-.765,1.193l-15.541,7.8A2.371,2.371,0,0,1,1789.47,608.844Zm-19.073-6.892a.73.73,0,0,0,.254.11c4.123,1.056,14.165,3.712,18.355,5.562a1.3,1.3,0,0,0,1.006-.028l15.54-7.8a.587.587,0,0,0,.115-.073.715.715,0,0,0-.244-.107c-4.445-1.181-15.121-3.949-18.25-4.158h0a1.318,1.318,0,0,0-.558.08l-16.03,6.31A.661.661,0,0,0,1770.4,601.953Z" transform="translate(-1769.234 -594.322)" fill="#5844bc"/>
        </g>
        <path id="Path_936" data-name="Path 936" d="M1794.537,645.584l11.453,3.552,2.863.888.716.222.357.11a2.45,2.45,0,0,0,.35.077,2.711,2.711,0,0,0,1.446-.18l5.371-2.345a.147.147,0,0,1,.141.013c.031.027.02.065-.025.085l-5.34,2.371a3.118,3.118,0,0,1-1.662.215,2.864,2.864,0,0,1-.407-.087l-.361-.109-.719-.218-2.876-.873-11.5-3.493c-.1-.031-.14-.107-.086-.169a.292.292,0,0,1,.282-.057Z" transform="translate(-1790.575 -638.079)" fill="#bfb6ff"/>
        <path id="Path_937" data-name="Path 937" d="M1870.882,603.868c.13-.072.263-.141.4-.21s.269-.135.4-.2q.408-.2.831-.379c.283-.119.573-.232.88-.327l.117-.034c.039-.011.08-.021.12-.031s.083-.018.124-.026l.065-.01.033-.005.034,0,.035,0a.32.32,0,0,1,.036,0H1874l.036,0,.067,0,.064.007c.084.01.165.022.246.034.322.052.635.113.948.177s.624.131.935.2.62.14.929.211.617.146.925.219q1.846.446,3.671.938c1.216.329,2.427.668,3.623,1.038-1.247-.26-2.483-.544-3.716-.831s-2.463-.584-3.692-.881l-.921-.222-.922-.221q-.461-.11-.922-.216c-.308-.07-.616-.14-.924-.2-.077-.015-.154-.028-.229-.04l-.055-.008-.052-.006-.024,0h-.02a.187.187,0,0,0-.024,0l-.025,0-.026,0-.027,0-.054.006c-.037.007-.073.011-.11.019-.074.014-.149.031-.223.05-.3.076-.591.174-.881.278s-.577.213-.863.325q-.214.084-.427.171C1871.165,603.751,1871.023,603.809,1870.882,603.868Z" transform="translate(-1856.023 -601.42)" fill="#bfb6ff"/>
      </g>
      <g id="Group_1125" data-name="Group 1125" transform="translate(19.753 5.007)">
        <g id="Group_1121" data-name="Group 1121">
          <path id="Path_938" data-name="Path 938" d="M1913.375,645.347l-.031,0a.468.468,0,0,1-.51-.422c-.009-.09-.857-9.04-1.01-11.111-.091-1.234-4.238-3.277-7.153-4.333a.468.468,0,1,1,.319-.88,39.117,39.117,0,0,1,3.722,1.607c2.644,1.323,3.967,2.48,4.045,3.537.152,2.062,1,11,1.009,11.092A.468.468,0,0,1,1913.375,645.347Z" transform="translate(-1904.362 -628.577)" fill="#5844bc"/>
        </g>
        <g id="Group_1123" data-name="Group 1123" transform="translate(7.728 16.102)">
          <g id="Group_1122" data-name="Group 1122">
            <path id="Path_939" data-name="Path 939" d="M1957.23,740.028a1.373,1.373,0,1,1,1.413,1.2A1.313,1.313,0,0,1,1957.23,740.028Z" transform="translate(-1957.23 -738.727)" fill="#ffb200"/>
          </g>
        </g>
        <g id="Group_1124" data-name="Group 1124" transform="translate(7.297 15.67)">
          <path id="Path_940" data-name="Path 940" d="M1956.376,739.113a1.919,1.919,0,0,1-.238.024,1.857,1.857,0,0,1-1.275-.432,1.607,1.607,0,0,1-.089-2.4,1.892,1.892,0,0,1,2.515-.093,1.617,1.617,0,0,1,.585,1.182A1.728,1.728,0,0,1,1956.376,739.113Zm-.465-2.462a.978.978,0,0,0-.532.265.764.764,0,0,0-.239.575h0a.764.764,0,0,0,.281.555,1,1,0,0,0,.685.228.885.885,0,0,0,.905-.853.763.763,0,0,0-.281-.555,1,1,0,0,0-.685-.228A1.085,1.085,0,0,0,1955.912,736.651Zm-1.2.855h0Z" transform="translate(-1954.276 -735.774)" fill="#5844bc"/>
        </g>
      </g>
    </g>
    <path id="Path_1005" data-name="Path 1005" d="M1882.385,963.105a.464.464,0,0,1-.464-.464c0-1.381-1.473-2.5-3.284-2.5s-3.281,1.123-3.281,2.5a.464.464,0,1,1-.928,0c0-1.892,1.888-3.431,4.209-3.431s4.211,1.539,4.211,3.431A.464.464,0,0,1,1882.385,963.105Z" transform="translate(-962.34 -6.735)" fill="#5844bc"/>
    <path id="Path_1006" data-name="Path 1006" d="M1899.385,942.84a.512.512,0,0,1-.512-.512v-2.563a.512.512,0,1,1,1.023,0v2.563A.512.512,0,0,1,1899.385,942.84Z" transform="translate(-983.21 10.304)" fill="#5844bc"/>
    <g id="Group_1197" data-name="Group 1197" transform="translate(894.804 950.504)">
      <g id="Group_1195" data-name="Group 1195" transform="translate(0 0)">
        <ellipse id="Ellipse_85" data-name="Ellipse 85" cx="4.509" cy="1.991" rx="4.509" ry="1.991" fill="#fe9882"/>
      </g>
      <g id="Group_1196" data-name="Group 1196" transform="translate(32.557 0)">
        <ellipse id="Ellipse_86" data-name="Ellipse 86" cx="4.509" cy="1.991" rx="4.509" ry="1.991" fill="#fe9882"/>
      </g>
    </g>
    <path id="Path_1007" data-name="Path 1007" d="M1966.361,899.411s-5.035,14.466.473,14.027C1972.309,913,1966.361,899.411,1966.361,899.411Z" transform="translate(-1039.036 44.323)" fill="#6fc8cb"/>
    <path id="Path_1008" data-name="Path 1008" d="M1813.175,846.206c0,2.259-.857,4.09-1.916,4.09s-1.916-1.831-1.916-4.09.859-4.091,1.916-4.091S1813.175,843.946,1813.175,846.206Z" transform="translate(-906.768 93.243)" fill="#5844bc"/>
    <path id="Path_1009" data-name="Path 1009" d="M1964.534,846.206c0,2.259-.858,4.09-1.915,4.09s-1.915-1.831-1.915-4.09.857-4.091,1.915-4.091S1964.534,843.946,1964.534,846.206Z" transform="translate(-1036.002 93.243)" fill="#5844bc"/>
    <path id="Path_1010" data-name="Path 1010" d="M1778.338,811.556a1.024,1.024,0,0,1-.956-1.386c2.067-5.445,6.323-5.508,6.5-5.508a1.023,1.023,0,0,1,.009,2.046c-.146,0-3.06.129-4.6,4.188A1.022,1.022,0,0,1,1778.338,811.556Z" transform="translate(-879.422 125.222)" fill="#5844bc"/>
    <path id="Path_1011" data-name="Path 1011" d="M1973.375,811.556a1.023,1.023,0,0,1-.957-.66c-1.572-4.14-4.561-4.188-4.591-4.188a1.023,1.023,0,1,1,0-2.046c.18,0,4.437.063,6.5,5.508a1.023,1.023,0,0,1-.594,1.319A1.01,1.01,0,0,1,1973.375,811.556Z" transform="translate(-1041.211 125.222)" fill="#5844bc"/>
  </g>
</svg>
