<svg xmlns="http://www.w3.org/2000/svg" width="16" height="16" viewBox="0 0 16 16">
  <g id="Group_52331" data-name="Group 52331" transform="translate(0 -2.753)">
    <path id="Path_97575" data-name="Path 97575" d="M9.785,7.842a.649.649,0,0,0-.98.557v6.056a.65.65,0,0,0,.98.558l5.074-3.023a.65.65,0,0,0,0-1.115Zm.316,5.472V9.542l3.16,1.888Z" transform="translate(-3.664 -0.674)" fill="#4e5b6a"/>
    <path id="Path_97576" data-name="Path 97576" d="M13.269,3.2a31.19,31.19,0,0,0-10.539,0A3.445,3.445,0,0,0,.3,6.347a32.719,32.719,0,0,0,0,8.812A3.444,3.444,0,0,0,2.731,18.3a28.852,28.852,0,0,0,5.277.449A28.677,28.677,0,0,0,13.27,18.3,3.447,3.447,0,0,0,15.7,15.159a32.732,32.732,0,0,0,0-8.814A3.445,3.445,0,0,0,13.269,3.2Zm1.447,11.742a2.273,2.273,0,0,1-1.593,2.078,30.334,30.334,0,0,1-10.245,0,2.273,2.273,0,0,1-1.594-2.078,30.73,30.73,0,0,1,0-8.38A2.274,2.274,0,0,1,2.878,4.484,28.059,28.059,0,0,1,8,4.049a28.064,28.064,0,0,1,5.123.435,2.273,2.273,0,0,1,1.594,2.078,30.736,30.736,0,0,1,0,8.381Z" transform="translate(0 0)" fill="#4e5b6a"/>
  </g>
</svg>
