<svg xmlns="http://www.w3.org/2000/svg" width="24" height="23.299" viewBox="0 0 24 23.299">
  <g id="Group_46551" data-name="Group 46551" transform="translate(-423 -563)">
    <path id="Path_96179" data-name="Path 96179" d="M12,22.286a6.7,6.7,0,0,1-3.169-.8L1.676,17.65a3.175,3.175,0,0,1,.016-5.607L8.865,8.25a6.7,6.7,0,0,1,6.269,0l7.173,3.794a3.175,3.175,0,0,1,.016,5.607l-7.155,3.838a6.7,6.7,0,0,1-3.169.8Zm0-12.94a4.826,4.826,0,0,0-2.258.561L2.569,13.7A1.3,1.3,0,0,0,2.563,16l7.155,3.838a4.818,4.818,0,0,0,4.565,0L21.437,16a1.3,1.3,0,0,0-.007-2.3L14.257,9.907A4.826,4.826,0,0,0,12,9.346ZM9.3,9.078h0Zm5.865,20.894L23.505,25.5a.937.937,0,1,0-.886-1.652L14.282,28.32a4.82,4.82,0,0,1-4.569,0L1.377,23.893A.937.937,0,0,0,.5,25.55l8.333,4.423a6.689,6.689,0,0,0,6.338,0Z" transform="translate(423 555.529)"/>
    <path id="Path_96180" data-name="Path 96180" d="M12,271.519a6.7,6.7,0,0,1-3.169-.8L.5,266.3a.937.937,0,1,1,.879-1.656l8.337,4.425a4.82,4.82,0,0,0,4.569,0l8.337-4.472a.937.937,0,0,1,.886,1.652l-8.337,4.471a6.7,6.7,0,0,1-3.169.8Z" transform="translate(423 310.562)"/>
  </g>
</svg>
