<svg xmlns="http://www.w3.org/2000/svg" width="40" height="35.102" viewBox="0 0 40 35.102">
  <g id="flaticon_3025463" transform="translate(0 -31.349)">
    <path id="Path_97551" data-name="Path 97551" d="M31.446,66.451H11.222A11.222,11.222,0,0,1,0,55.229V35.005a3.656,3.656,0,0,1,3.656-3.656H31.446A3.656,3.656,0,0,1,35.1,35.005V62.795a3.656,3.656,0,0,1-3.656,3.656Z" transform="translate(0)" fill="#f7ef87"/>
    <path id="Path_97552" data-name="Path 97552" d="M191.093,70.137a3.675,3.675,0,0,0-.063-.675c-.06,0-.119,0-.18,0a4.964,4.964,0,0,0-3.533,1.463L172.163,86.075a8.137,8.137,0,0,0-2.257,4.293l-.626,3.386a4.145,4.145,0,0,0,4.069,4.9h0a4.19,4.19,0,0,0,.759-.07l3.386-.626a8.138,8.138,0,0,0,4.293-2.258l9.3-9.3V70.137Z" transform="translate(-155.991 -35.132)" fill="#eed076"/>
    <g id="Group_50051" data-name="Group 50051" transform="translate(8.344 36.532)">
      <g id="Group_50049" data-name="Group 50049" transform="translate(0 1.683)">
        <g id="Group_50048" data-name="Group 50048">
          <g id="Group_50046" data-name="Group 50046">
            <ellipse id="Ellipse_5903" data-name="Ellipse 5903" cx="2.482" cy="1.976" rx="2.482" ry="1.976" fill="#e8899e"/>
          </g>
          <g id="Group_50047" data-name="Group 50047" transform="translate(13.451)">
            <ellipse id="Ellipse_5904" data-name="Ellipse 5904" cx="2.482" cy="1.976" rx="2.482" ry="1.976" fill="#e8899e"/>
          </g>
        </g>
      </g>
      <g id="Group_50050" data-name="Group 50050" transform="translate(3.342 0)">
        <path id="Path_97553" data-name="Path 97553" d="M150.163,102.132a.586.586,0,0,1-.586-.586v-.966a.586.586,0,1,1,1.172,0v.966A.586.586,0,0,1,150.163,102.132Z" transform="translate(-149.577 -99.814)" fill="#4e5660"/>
        <path id="Path_97554" data-name="Path 97554" d="M201.314,114.087a2.432,2.432,0,0,1-1.834-.835.586.586,0,0,1,.884-.77,1.259,1.259,0,0,0,1.9,0,.586.586,0,0,1,.884.77A2.432,2.432,0,0,1,201.314,114.087Z" transform="translate(-195.449 -111.141)" fill="#4e5660"/>
        <path id="Path_97555" data-name="Path 97555" d="M275.611,99.976a.586.586,0,0,1-.586-.586.533.533,0,1,0-1.067,0,.586.586,0,0,1-1.172,0,1.705,1.705,0,1,1,3.41,0A.586.586,0,0,1,275.611,99.976Z" transform="translate(-263.161 -97.685)" fill="#4e5660"/>
      </g>
    </g>
    <g id="Group_50052" data-name="Group 50052" transform="translate(6.678 45.583)">
      <path id="Path_97556" data-name="Path 97556" d="M106.636,214.716H86.061a.586.586,0,0,1,0-1.172h20.575a.586.586,0,1,1,0,1.172Z" transform="translate(-85.475 -213.544)" fill="#4e5660"/>
      <path id="Path_97557" data-name="Path 97557" d="M137.417,276.6H122.543a.586.586,0,0,1,0-1.172h14.874a.586.586,0,0,1,0,1.172Z" transform="translate(-119.107 -270.598)" fill="#4e5660"/>
    </g>
    <g id="Group_50053" data-name="Group 50053" transform="translate(15.634 36.741)">
      <path id="Path_97558" data-name="Path 97558" d="M0,0H8.783V3.832H0Z" transform="translate(14.94 3.21) rotate(45)" fill="#8ea3e2"/>
      <path id="Path_97559" data-name="Path 97559" d="M400.035,103.677l-2.559-2.559a2.582,2.582,0,0,0-3.651,0l-2.458,2.458,6.21,6.21,2.458-2.458A2.582,2.582,0,0,0,400.035,103.677Z" transform="translate(-376.425 -100.362)" fill="#e8899e"/>
      <path id="Path_97560" data-name="Path 97560" d="M205.543,193.97l-3.386.626a1.73,1.73,0,0,1-2.016-2.016l.626-3.386a5.758,5.758,0,0,1,1.591-3.025l9.986-9.986,6.21,6.21-9.986,9.986a5.759,5.759,0,0,1-3.025,1.591Z" transform="translate(-200.112 -170.259)" fill="#fff"/>
      <path id="Path_97561" data-name="Path 97561" d="M230.307,188.675l1.04.375a1.406,1.406,0,0,1,.845.845l.375,1.04a1.406,1.406,0,0,0,.845.845l1.661.6,9.986-9.986-6.21-6.21-9.986,9.986.6,1.661A1.406,1.406,0,0,0,230.307,188.675Z" transform="translate(-226.616 -170.259)" fill="#a3defe"/>
      <path id="Path_97562" data-name="Path 97562" d="M233.915,239.327l-5.053,5.053.6,1.661a1.406,1.406,0,0,0,.845.845l1.04.375a1.406,1.406,0,0,1,.845.845l.375,1.04a1.406,1.406,0,0,0,.845.845l1.661.6,1.2-1.2C233.918,246.951,233.552,242.529,233.915,239.327Z" transform="translate(-226.616 -228.47)" fill="#7acefa"/>
      <path id="Path_97563" data-name="Path 97563" d="M200.637,351.759l-.5,2.681a1.73,1.73,0,0,0,2.016,2.016l2.681-.5Z" transform="translate(-200.112 -332.119)" fill="#4e5660"/>
      <path id="Path_97564" data-name="Path 97564" d="M306.209,264.535a.586.586,0,0,1-.414-1l2.4-2.4a.586.586,0,1,1,.829.829l-2.4,2.4A.584.584,0,0,1,306.209,264.535Z" transform="translate(-297.38 -248.412)" fill="#fff"/>
    </g>
    <path id="Path_97565" data-name="Path 97565" d="M0,297.56a11.222,11.222,0,0,0,11.222,11.222h3.343a4.107,4.107,0,0,1-4.107-4.107V301.16a2.836,2.836,0,0,0-2.836-2.836H4.107A4.107,4.107,0,0,1,0,294.217Z" transform="translate(0 -242.331)" fill="#eed076"/>
  </g>
</svg>
