<svg id="Group_52428" data-name="Group 52428" xmlns="http://www.w3.org/2000/svg" width="24.387" height="24.387" viewBox="0 0 24.387 24.387">
  <path id="Path_99991" data-name="Path 99991" d="M28.194,40.387a12.207,12.207,0,1,0-8.618-3.575,12.194,12.194,0,0,0,8.618,3.575Zm0-22.761a10.58,10.58,0,1,1-7.469,3.1,10.568,10.568,0,0,1,7.469-3.1Z" transform="translate(-16 -16)" fill="#4e5b6a"/>
  <path id="Path_99992" data-name="Path 99992" d="M240.813,369.626a.813.813,0,1,0-.813-.813A.813.813,0,0,0,240.813,369.626Z" transform="translate(-228.619 -350.116)" fill="#4e5b6a"/>
  <path id="Path_99993" data-name="Path 99993" d="M176.813,116.877a.813.813,0,0,0,.813-.813,2.439,2.439,0,0,1,4.877,0,3.448,3.448,0,0,1-1.388,2.677,5.034,5.034,0,0,0-1.864,3.826.813.813,0,1,0,1.626,0,3.448,3.448,0,0,1,1.388-2.677,5.033,5.033,0,0,0,1.864-3.826,4.065,4.065,0,1,0-8.129,0,.813.813,0,0,0,.813.813Z" transform="translate(-167.871 -107.123)" fill="#4e5b6a"/>
</svg>
