<svg xmlns="http://www.w3.org/2000/svg" width="14.4" height="12.72" viewBox="0 0 14.4 12.72">
  <path id="Path_96930" data-name="Path 96930" d="M13.772,20.664c-.65-.35-1.375.325-1.8.725-.975.95-1.8,2.049-2.724,3.049-1.025,1.1-1.974,2.2-3.024,3.274a9.017,9.017,0,0,0-1.649,2,32.805,32.805,0,0,0-2.674-2.6c-.725-.55-1.924-.95-1.9.375.05,1.725,1.575,3.574,2.7,4.749a2.854,2.854,0,0,0,1.824,1.05c.875.05,1.774-1,2.3-1.575.925-1,1.675-2.124,2.524-3.149,1.1-1.35,2.224-2.674,3.3-4.049C13.322,23.663,15.446,21.563,13.772,20.664ZM1.1,27.387a.189.189,0,0,0-.1.025,1.216,1.216,0,0,1-.275-.1h0Q.838,27.237,1.1,27.387Z" transform="translate(-0.001 -20.566)" fill="#fff"/>
</svg>
