<svg xmlns="http://www.w3.org/2000/svg" xmlns:xlink="http://www.w3.org/1999/xlink" width="30" height="29.996" viewBox="0 0 30 29.996">
  <defs>
    <linearGradient id="linear-gradient" x1="0.5" x2="0.5" y2="1" gradientUnits="objectBoundingBox">
      <stop offset="0" stop-color="#fff2c1"/>
      <stop offset="1" stop-color="#ffe278"/>
    </linearGradient>
  </defs>
  <g id="Group_47441" data-name="Group 47441" transform="translate(0 -0.037)">
    <path id="Path_96668" data-name="Path 96668" d="M23.516,43.341V31.584a2.027,2.027,0,0,1,.8-1.611l9.477-7.228a5.853,5.853,0,0,1,4.13-1.171l-.539-.411a5.859,5.859,0,0,0-7.107,0l-7.969,6.078A5.859,5.859,0,0,0,20,31.9v9.86A5.86,5.86,0,0,0,25.347,47.6a5.842,5.842,0,0,1-1.831-4.255Z" transform="translate(-18.828 -18.758)" fill="url(#linear-gradient)"/>
    <path id="Path_96669" data-name="Path 96669" d="M22.969,30.032H7.031A7.039,7.039,0,0,1,0,23v-9.86A7.072,7.072,0,0,1,2.767,7.551l7.969-6.078a7.048,7.048,0,0,1,8.528,0l7.969,6.078A7.072,7.072,0,0,1,30,13.141V23A7.039,7.039,0,0,1,22.969,30.032ZM15,2.379a4.681,4.681,0,0,0-2.843.957L4.189,9.414a4.714,4.714,0,0,0-1.845,3.727V23a4.693,4.693,0,0,0,4.688,4.688H22.969A4.693,4.693,0,0,0,27.656,23v-9.86a4.714,4.714,0,0,0-1.845-3.727L17.843,3.336A4.682,4.682,0,0,0,15,2.379Zm4.264,18.01,5.646-4.307a1.172,1.172,0,1,0-1.422-1.863l-5.646,4.307a4.7,4.7,0,0,1-5.685,0L6.57,14.264a1.172,1.172,0,0,0-1.421,1.864l5.587,4.261a7.048,7.048,0,0,0,8.528,0Z" fill="#ffce1c"/>
    <path id="Path_96670" data-name="Path 96670" d="M232.465,98.111a1.172,1.172,0,0,1-1.172-1.172v-4.8a1.172,1.172,0,0,1,2.344,0v4.8A1.172,1.172,0,0,1,232.465,98.111Zm0,1.7a1.465,1.465,0,1,0,1.465,1.465,1.465,1.465,0,0,0-1.465-1.465Z" transform="translate(-217.465 -85.599)" fill="#ffce1c"/>
  </g>
</svg>
