<svg xmlns="http://www.w3.org/2000/svg" width="63.466" height="64" viewBox="0 0 63.466 64">
  <g id="Group_52284" data-name="Group 52284" transform="translate(-668 -256)">
    <path id="Path_97609" data-name="Path 97609" d="M57.441,167.85H88.635v-18.9H62.159a4.718,4.718,0,0,0-4.718,4.718Zm0,0" transform="translate(617.739 125.666)" fill="#ffcd00"/>
    <path id="Path_97610" data-name="Path 97610" d="M162.458,9.472l-7.766-8.3a3.684,3.684,0,0,0-5.381,0l-7.766,8.3a2.322,2.322,0,0,0,1.7,3.908h2.613V41.043h12.295V13.38h2.612a2.322,2.322,0,0,0,1.7-3.908Zm0,0" transform="translate(544.699 256)" fill="#abebf4"/>
    <path id="Path_97611" data-name="Path 97611" d="M180.43,148.953h12.295v22.424H180.43Zm0,0" transform="translate(510.124 125.666)" fill="#8ed7e8"/>
    <path id="Path_97612" data-name="Path 97612" d="M30.737,151.982l-1.479,3a5.088,5.088,0,0,1-4.563,2.837H5.126A5.127,5.127,0,0,0,0,162.943v26.264a5.127,5.127,0,0,0,5.127,5.126H47.282a5.127,5.127,0,0,0,5.127-5.126V154.08a5.127,5.127,0,0,0-5.127-5.127H35.609a5.433,5.433,0,0,0-4.872,3.029Zm0,0" transform="translate(668.001 125.666)" fill="#ffeb99"/>
    <path id="Path_97613" data-name="Path 97613" d="M11.353,251.25V224.986a5.127,5.127,0,0,1,5.126-5.127H5.127A5.127,5.127,0,0,0,0,224.986V251.25a5.127,5.127,0,0,0,5.127,5.127H16.479A5.127,5.127,0,0,1,11.353,251.25Zm0,0" transform="translate(668 63.623)" fill="#ffde55"/>
    <g id="Group_52283" data-name="Group 52283" transform="matrix(0.788, 0.616, -0.616, 0.788, 293.39, -410.37)">
      <path id="Path_97152" data-name="Path 97152" d="M182.287,5.766a1.344,1.344,0,0,1-1.344-1.344V1.373a1.344,1.344,0,0,1,2.685,0v3.05a1.344,1.344,0,0,1-1.344,1.344Z" transform="translate(575.43 269)" fill="#ffde55"/>
      <path id="Path_97153" data-name="Path 97153" d="M43.115,33.751l-2.158-2.158a1.344,1.344,0,1,1,1.9-1.9l2.158,2.158a1.344,1.344,0,0,1-1.9,1.9Z" transform="translate(707.275 241.51)" fill="#ffde55"/>
      <path id="Path_97154" data-name="Path 97154" d="M286.211,33.794a1.344,1.344,0,0,1,0-1.9l2.158-2.158a1.344,1.344,0,0,1,1.9,1.9l-2.158,2.158A1.344,1.344,0,0,1,286.211,33.794Z" transform="translate(476.934 241.467)" fill="#ffde55"/>
    </g>
    <g id="Group_48663" data-name="Group 48663" transform="translate(679.311 297.31)">
      <ellipse id="Ellipse_5884" data-name="Ellipse 5884" cx="3.141" cy="3.945" rx="3.141" ry="3.945" transform="translate(0 9.397) rotate(-89.828)" fill="#ffa1ac"/>
      <path id="Path_97155" data-name="Path 97155" d="M253.736,250.062a4.047,4.047,0,1,0,3.955-3.129,3.612,3.612,0,0,0-3.955,3.129Z" transform="translate(-232.347 -243.736)" fill="#ffa1ac"/>
      <g id="Group_48662" data-name="Group 48662" transform="translate(3.414 0)">
        <path id="Path_97156" data-name="Path 97156" d="M184.4,237.978c0-1.966-1.417-2.155-3.174-2.16s-3.181.175-3.187,2.136a3.2,3.2,0,1,0,6.361.02Z" transform="translate(-169.984 -234.076)" fill="#3b4456"/>
        <path id="Path_97157" data-name="Path 97157" d="M121.212,226.384h0a.984.984,0,0,1-.981-.987.894.894,0,0,0-.891-.9h0a.894.894,0,0,0-.894.891.984.984,0,0,1-.984.981h0a.984.984,0,0,1-.981-.985,2.86,2.86,0,0,1,2.86-2.853h.009A2.86,2.86,0,0,1,122.2,225.4a.984.984,0,0,1-.992.981Z" transform="translate(-116.482 -222.534)" fill="#3b4456"/>
        <path id="Path_97158" data-name="Path 97158" d="M249.253,226.764h0a.984.984,0,0,1-.981-.987.9.9,0,0,0-.892-.9h0a.894.894,0,0,0-.894.892.984.984,0,0,1-.984.981h0a.984.984,0,0,1-.981-.987,2.862,2.862,0,0,1,5.722.018.984.984,0,0,1-.99.979Z" transform="translate(-227.737 -222.86)" fill="#3b4456"/>
      </g>
    </g>
  </g>
</svg>
