<svg xmlns="http://www.w3.org/2000/svg" width="30" height="29.996" viewBox="0 0 30 29.996">
  <g id="Group_46552" data-name="Group 46552" transform="translate(-629 -563)">
    <path id="Path_96182" data-name="Path 96182" d="M22.969,30.033H7.031A7.039,7.039,0,0,1,0,23v-9.86A7.072,7.072,0,0,1,2.767,7.551l7.969-6.078a7.048,7.048,0,0,1,8.528,0l7.969,6.078A7.072,7.072,0,0,1,30,13.142V23A7.039,7.039,0,0,1,22.969,30.033ZM15,2.38a4.681,4.681,0,0,0-2.843.957L4.189,9.415a4.715,4.715,0,0,0-1.845,3.727V23a4.693,4.693,0,0,0,4.688,4.688H22.969A4.693,4.693,0,0,0,27.656,23v-9.86a4.714,4.714,0,0,0-1.845-3.727L17.843,3.337A4.682,4.682,0,0,0,15,2.38Z" transform="translate(629 562.963)"/>
    <path id="Path_96183" data-name="Path 96183" d="M152.445,208.561a3.713,3.713,0,0,1-2.228-.737c-2.707-2.027-4.165-4.454-4.217-7.02,0-.008,0-.016,0-.024a3.807,3.807,0,0,1,6.445-2.754,3.807,3.807,0,0,1,6.445,2.754c0,.008,0,.016,0,.024-.052,2.566-1.51,4.993-4.217,7.02A3.715,3.715,0,0,1,152.445,208.561Zm-4.1-7.792c.053,2.29,1.811,4.08,3.278,5.179a1.381,1.381,0,0,0,1.646,0c1.467-1.1,3.226-2.888,3.278-5.179a1.465,1.465,0,0,0-2.93,0,1.172,1.172,0,0,1-2.344,0,1.465,1.465,0,0,0-2.93,0Z" transform="translate(491.555 377.575)"/>
  </g>
</svg>
