<svg xmlns="http://www.w3.org/2000/svg" xmlns:xlink="http://www.w3.org/1999/xlink" width="50" height="50" viewBox="0 0 75.255 75.254">
  <defs>
    <filter id="Ellipse_5855" x="0" y="0" width="75.255" height="75.254" filterUnits="userSpaceOnUse">
      <feOffset dy="3" input="SourceAlpha"/>
      <feGaussianBlur stdDeviation="5" result="blur"/>
      <feFlood flood-color="#101010" flood-opacity="0.161"/>
      <feComposite operator="in" in2="blur"/>
      <feComposite in="SourceGraphic"/>
    </filter>
  </defs>
  <g id="X" transform="translate(-2375 725) rotate(-45) scale(2)">
    <g transform="matrix(0.71, 0.71, -0.71, 0.71, 1093.88, 557.76)" filter="url(#Ellipse_5855)">
      <circle id="Ellipse_5855-2" data-name="Ellipse 5855" cx="16" cy="16" r="16" transform="translate(15 34.63) rotate(-45)" fill="#ff6161"/>
    </g>
    <path id="Union_1" data-name="Union 1" d="M7.124,16.625v-4.75H2.375a2.375,2.375,0,0,1,0-4.75H7.124V2.374a2.375,2.375,0,0,1,4.75,0v4.75h4.75a2.375,2.375,0,1,1,0,4.75h-4.75v4.75a2.375,2.375,0,1,1-4.75,0Z" transform="translate(1087 599.848)" fill="#fff"/>
  </g>
</svg>