<svg xmlns="http://www.w3.org/2000/svg" width="16" height="15.533" viewBox="0 0 16 15.533">
  <g id="ic_hoclieu" transform="translate(0 -7.471)">
    <path id="Path_97312" data-name="Path 97312" d="M8,17.348a4.465,4.465,0,0,1-2.113-.532l-4.77-2.558a2.117,2.117,0,0,1,.011-3.738L5.91,7.99a4.466,4.466,0,0,1,4.179,0l4.782,2.529a2.117,2.117,0,0,1,.011,3.738l-4.77,2.558A4.466,4.466,0,0,1,8,17.348ZM8,8.721A3.217,3.217,0,0,0,6.494,9.1L1.713,11.624a.867.867,0,0,0,0,1.531l4.77,2.558a3.212,3.212,0,0,0,3.043,0l4.77-2.558a.867.867,0,0,0,0-1.531L9.5,9.1A3.217,3.217,0,0,0,8,8.721ZM6.2,8.543h0Zm3.91,13.929,5.558-2.981a.625.625,0,1,0-.591-1.1L9.521,21.37a3.213,3.213,0,0,1-3.046,0L.918,18.419a.625.625,0,1,0-.586,1.1l5.555,2.948a4.459,4.459,0,0,0,4.225,0Z" transform="translate(0)" fill="#4e5b6a"/>
    <path id="Path_97313" data-name="Path 97313" d="M8,269.174a4.465,4.465,0,0,1-2.113-.532L.332,265.694a.625.625,0,1,1,.586-1.1l5.558,2.95a3.213,3.213,0,0,0,3.046,0l5.558-2.981a.625.625,0,1,1,.591,1.1l-5.558,2.981A4.465,4.465,0,0,1,8,269.174Z" transform="translate(0 -248.983)" fill="#4e5b6a"/>
  </g>
</svg>
