<svg xmlns="http://www.w3.org/2000/svg" width="24.3" height="24.3" viewBox="0 0 24.3 24.3">
  <g id="ic_Setting_24" transform="translate(0.15 0.15)">
    <path id="Path_97408" data-name="Path 97408" d="M138.609,133.609a5,5,0,1,0,5,5A5.006,5.006,0,0,0,138.609,133.609Zm0,8.75a3.75,3.75,0,1,1,3.75-3.75A3.754,3.754,0,0,1,138.609,142.359Zm0,0" transform="translate(-126.61 -126.609)" fill="#9375f7" stroke="#9375f7" stroke-width="0.3"/>
    <path id="Path_97409" data-name="Path 97409" d="M23.435,9.267l-1.845-.4A10.039,10.039,0,0,0,21,7.435l1.021-1.588a.717.717,0,0,0-.1-.895L19.048,2.078a.717.717,0,0,0-.895-.1L16.565,3a10.039,10.039,0,0,0-1.432-.594l-.4-1.845a.717.717,0,0,0-.7-.565H9.968a.717.717,0,0,0-.7.565l-.4,1.845A10.039,10.039,0,0,0,7.435,3L5.846,1.982a.717.717,0,0,0-.895.1L2.078,4.951a.717.717,0,0,0-.1.895L3,7.435a10.039,10.039,0,0,0-.594,1.432l-1.845.4a.717.717,0,0,0-.565.7v4.064a.717.717,0,0,0,.565.7l1.845.4A10.039,10.039,0,0,0,3,16.565L1.982,18.153a.717.717,0,0,0,.1.895l2.874,2.874a.717.717,0,0,0,.895.1L7.435,21a10.039,10.039,0,0,0,1.432.594l.4,1.845a.717.717,0,0,0,.7.565h4.064a.717.717,0,0,0,.7-.565l.4-1.845A10.039,10.039,0,0,0,16.565,21l1.588,1.021a.717.717,0,0,0,.895-.1l2.874-2.874a.717.717,0,0,0,.1-.895L21,16.565a10.039,10.039,0,0,0,.594-1.432l1.845-.4a.717.717,0,0,0,.565-.7V9.968A.717.717,0,0,0,23.435,9.267Zm-.87,4.187-1.691.368a.718.718,0,0,0-.539.508,8.6,8.6,0,0,1-.794,1.916.717.717,0,0,0,.021.74l.937,1.457L18.443,20.5l-1.457-.937a.717.717,0,0,0-.74-.021,8.609,8.609,0,0,1-1.916.794.717.717,0,0,0-.508.539l-.368,1.691H10.546l-.368-1.691a.718.718,0,0,0-.508-.539,8.6,8.6,0,0,1-1.916-.794.717.717,0,0,0-.74.021L5.557,20.5,3.5,18.443l.936-1.457a.717.717,0,0,0,.021-.74,8.614,8.614,0,0,1-.795-1.916.717.717,0,0,0-.538-.508l-1.692-.368V10.546l1.691-.368a.718.718,0,0,0,.539-.508,8.6,8.6,0,0,1,.794-1.916.717.717,0,0,0-.021-.74L3.5,5.557,5.557,3.5l1.457.937a.717.717,0,0,0,.74.021A8.61,8.61,0,0,1,9.67,3.664a.717.717,0,0,0,.508-.539l.368-1.691h2.908l.368,1.691a.718.718,0,0,0,.508.539,8.6,8.6,0,0,1,1.916.794.717.717,0,0,0,.74-.021L18.443,3.5,20.5,5.557l-.936,1.457a.717.717,0,0,0-.021.74,8.6,8.6,0,0,1,.795,1.916.717.717,0,0,0,.538.508l1.692.368Zm0,0" fill="#9375f7" stroke="#9375f7" stroke-width="0.3"/>
  </g>
</svg>
