<svg xmlns="http://www.w3.org/2000/svg" width="24.002" height="23.999" viewBox="0 0 24.002 23.999">
  <g id="ic_Noti_24" transform="translate(-1001.999 -968.001)">
    <path id="Union_2" data-name="Union 2" d="M9343,1318.5h0v-1.874h9.189a.939.939,0,0,0,0-1.878h-.493a.936.936,0,0,1-.928-.805l-1.01-7.2a6.769,6.769,0,0,0-2.937-4.714,6.918,6.918,0,0,0-3.822-1.153V1299a9.066,9.066,0,0,1,4.862,1.465,8.643,8.643,0,0,1,3.752,6.015l.9,6.412a2.813,2.813,0,0,1-.323,5.607Zm-9.189,0a2.813,2.813,0,0,1-.323-5.607l.9-6.412a8.646,8.646,0,0,1,3.752-6.015A9.06,9.06,0,0,1,9343,1299v1.874a6.917,6.917,0,0,0-3.82,1.153,6.772,6.772,0,0,0-2.937,4.714l-1.01,7.2a.936.936,0,0,1-.928.805h-.493a.939.939,0,0,0,0,1.878H9343v1.874Zm9.189-4.829h0V1311.8h4.55a.937.937,0,0,1,0,1.874Zm-4.55,0a.937.937,0,0,1,0-1.874H9343v1.874Z" transform="translate(-8329 -330.999)" fill="#9375f7"/>
    <path id="Path_97317" data-name="Path 97317" d="M200.078,24a2.8,2.8,0,0,1-2.793-2.47.937.937,0,1,1,1.862-.217.939.939,0,0,0,1.861,0,.937.937,0,1,1,1.862.217A2.8,2.8,0,0,1,200.078,24Z" transform="translate(813.969 968)" fill="#9375f7"/>
  </g>
</svg>
