<svg xmlns="http://www.w3.org/2000/svg" id="artboard-svg" width="26" height="27" viewBox="0 0 26 27"><defs><style>.cls-1 { clip-path: url(#clip-Toast-message); } .cls-2 { fill: #6133c2; font-size: 40px; font-family: OpenSans-Bold, Open Sans; } .cls-14, .cls-2 { font-weight: 700; } .cls-3 { fill: #757575; font-size: 30px; font-family: OpenSans, Open Sans; } .cls-4 { fill: #e4e4e4; } .cls-5 { fill: #e7886e; } .cls-6 { fill: #fbe29f; } .cls-7 { fill: #ffcabd; } .cls-8 { fill: #ffd3bc; } .cls-9 { fill: #fccb88; } .cls-10 { fill: #ff9db0; } .cls-11 { fill: #423e4f; } .cls-12 { fill: #e27858; } .cls-13, .cls-25 { fill: #fff; } .cls-13 { opacity: 0.6; } .cls-14 { fill: #4e5b6a; font-family: Nunito-Bold, Nunito; } .cls-14, .cls-15 { font-size: 16px; } .cls-15 { fill: #62768e; font-family: Nunito-Regular, Nunito; } .cls-16 { fill: #ff6161; } .cls-17 { fill: #ffce1c; } .cls-18 { fill: #538ff5; } .cls-19 { fill: #5ec576; } .cls-20 { fill: url(#linear-gradient); } .cls-21 { fill: #b9bac4; } .cls-22 { fill: url(#linear-gradient-2); } .cls-23 { fill: url(#linear-gradient-3); } .cls-24 { fill: url(#linear-gradient-4); } .cls-26 { filter: url(#Rectangle_10); } .cls-27 { filter: url(#Rectangle_8); } .cls-28 { filter: url(#Rectangle_6); } .cls-29 { filter: url(#Rectangle_4); }</style><filter id="Rectangle_4" width="560" height="148" x="60" y="221" filterUnits="userSpaceOnUse"><feOffset dy="5"/><feGaussianBlur result="blur" stdDeviation="10"/><feFlood flood-opacity=".161"/><feComposite in2="blur" operator="in"/><feComposite in="SourceGraphic"/></filter><filter id="Rectangle_6" width="560" height="148" x="60" y="329" filterUnits="userSpaceOnUse"><feOffset dy="5"/><feGaussianBlur result="blur-2" stdDeviation="10"/><feFlood flood-opacity=".161"/><feComposite in2="blur-2" operator="in"/><feComposite in="SourceGraphic"/></filter><filter id="Rectangle_8" width="560" height="148" x="60" y="437" filterUnits="userSpaceOnUse"><feOffset dy="5"/><feGaussianBlur result="blur-3" stdDeviation="10"/><feFlood flood-opacity=".161"/><feComposite in2="blur-3" operator="in"/><feComposite in="SourceGraphic"/></filter><filter id="Rectangle_10" width="560" height="148" x="60" y="545" filterUnits="userSpaceOnUse"><feOffset dy="5"/><feGaussianBlur result="blur-4" stdDeviation="10"/><feFlood flood-opacity=".161"/><feComposite in2="blur-4" operator="in"/><feComposite in="SourceGraphic"/></filter><linearGradient id="linear-gradient" x1=".5" x2=".5" y2="1" gradientUnits="objectBoundingBox"><stop offset="0" stop-color="#ffe6e6"/><stop offset="1" stop-color="#ffbaba"/></linearGradient><linearGradient id="linear-gradient-2" x1=".5" x2=".5" y2="1" gradientUnits="objectBoundingBox"><stop offset="0" stop-color="#fff2c1"/><stop offset="1" stop-color="#ffe278"/></linearGradient><linearGradient id="linear-gradient-3" x1=".5" x2=".5" y2="1" gradientUnits="objectBoundingBox"><stop offset="0" stop-color="#e2edff"/><stop offset="1" stop-color="#98beff"/></linearGradient><linearGradient id="linear-gradient-4" x1=".5" x2=".5" y2="1" gradientUnits="objectBoundingBox"><stop offset="0" stop-color="#ebffef"/><stop offset="1" stop-color="#84eb9c"/></linearGradient><clipPath id="clip-Toast-message"><path d="M0 0h1599v1212H0z"/></clipPath></defs><g transform="translate(-549 -387)"><g id="Toast-message" class="cls-1"><g id="Group_47440" data-name="Group 47440" transform="translate(-1290 166)"><g id="Group_47346" data-name="Group 47346" transform="translate(1840 222)"><g id="Group_47342-2" data-name="Group 47342"><g id="Group_47341-2" data-name="Group 47341"><path id="Path_96666-2" d="M23 11a1 1 0 0 0-1 1 10 10 0 1 1-2.9-7.046 1 1 0 1 0 1.419-1.409A12 12 0 1 0 24 12a1 1 0 0 0-1-1z" class="cls-21" data-name="Path 96666"/></g></g><g id="Group_47344-2" data-name="Group 47344" transform="translate(7.5 7.5)"><g id="Group_47343-2" data-name="Group 47343"><path id="Path_96667-2" d="M134.093 132.5l2.58-2.58a1.125 1.125 0 0 0-1.591-1.591l-2.58 2.58-2.58-2.58a1.125 1.125 0 0 0-1.591 1.591l2.58 2.58-2.58 2.58a1.125 1.125 0 1 0 1.591 1.591l2.58-2.58 2.58 2.58a1.125 1.125 0 0 0 1.591-1.591z" class="cls-21" data-name="Path 96667" transform="translate(-128.002 -128.002)"/></g></g></g></g></g></g></svg>