<svg xmlns="http://www.w3.org/2000/svg" width="24" height="24" viewBox="0 0 24 24">
  <g id="Group_46550" data-name="Group 46550" transform="translate(-550 -562)">
    <path id="Path_96185" data-name="Path 96185" d="M3.469,189.844A3.473,3.473,0,0,1,0,186.375v-8.906a3.469,3.469,0,1,1,6.937,0v8.906A3.473,3.473,0,0,1,3.469,189.844Zm0-13.969a1.6,1.6,0,0,0-1.594,1.594v8.906a1.594,1.594,0,0,0,3.187,0v-8.906A1.6,1.6,0,0,0,3.469,175.875ZM12,189.844a3.473,3.473,0,0,1-3.469-3.469v-3.844a3.469,3.469,0,0,1,6.937,0v3.844A3.473,3.473,0,0,1,12,189.844Zm0-8.906a1.6,1.6,0,0,0-1.594,1.594v3.844a1.594,1.594,0,0,0,3.187,0v-3.844A1.6,1.6,0,0,0,12,180.938Zm8.531,8.906a3.473,3.473,0,0,1-3.469-3.469v-8.2a3.469,3.469,0,1,1,6.937,0v8.2A3.473,3.473,0,0,1,20.531,189.844Zm0-13.266a1.6,1.6,0,0,0-1.594,1.594v8.2a1.594,1.594,0,0,0,3.187,0v-8.2A1.6,1.6,0,0,0,20.531,176.578Z" transform="translate(550 396.156)"/>
    <path id="Path_96186" data-name="Path 96186" d="M12.887,11.435a3.267,3.267,0,0,1-2.032-.705c-.017-.013-6-5.449-6-5.449a1.4,1.4,0,0,0-1.776.062L1.6,6.807A.937.937,0,0,1,.279,5.474l1.53-1.512a3.273,3.273,0,0,1,4.23-.134c.017.013,6,5.449,6,5.449a1.409,1.409,0,0,0,1.9-.179l.018-.019,5.2-5.458a.937.937,0,0,1,1.358,1.293l-5.188,5.45a3.279,3.279,0,0,1-2.432,1.073ZM24,5.344V2.812A2.816,2.816,0,0,0,21.188,0H18.657a.937.937,0,1,0,0,1.875h2.531a.939.939,0,0,1,.937.937V5.344a.937.937,0,1,0,1.875,0Z" transform="translate(550 562)"/>
  </g>
</svg>
