<svg xmlns="http://www.w3.org/2000/svg" width="18.51" height="24" viewBox="0 0 18.51 24">
  <g id="_58326" data-name="58326" transform="translate(-67.372)">
    <g id="Group_47430" data-name="Group 47430" transform="translate(67.822 5.969)">
      <path id="Path_96657" data-name="Path 96657" d="M94.1,146.986H81.283a2.379,2.379,0,0,0-2.371,2.578l1.11,13.232a2.379,2.379,0,0,0,2.371,2.18H92.985a2.379,2.379,0,0,0,2.371-2.18l1.11-13.232a2.379,2.379,0,0,0-2.371-2.578Zm.631,2.432-1.11,13.232a.633.633,0,0,1-.631.581H82.393a.633.633,0,0,1-.631-.581l-1.11-13.232a.633.633,0,0,1,.631-.686H94.1A.633.633,0,0,1,94.726,149.418Z" transform="translate(-78.884 -146.966)" fill="#62768e"/>
      <path id="Path_96658" data-name="Path 96658" d="M92.5,164.516H81.913a2.4,2.4,0,0,1-2.391-2.2l-1.11-13.232a2.4,2.4,0,0,1,2.391-2.6H93.615a2.4,2.4,0,0,1,2.391,2.6L94.9,162.317a2.4,2.4,0,0,1-2.391,2.2Zm-11.7-17.99a2.359,2.359,0,0,0-2.35,2.556l1.11,13.232a2.359,2.359,0,0,0,2.35,2.162H92.5a2.359,2.359,0,0,0,2.35-2.162l1.11-13.232a2.359,2.359,0,0,0-2.35-2.556H80.8Zm11.7,16.245H81.913a.658.658,0,0,1-.652-.6l-1.11-13.232a.654.654,0,0,1,.652-.709H93.615a.654.654,0,0,1,.652.709l-1.11,13.232A.658.658,0,0,1,92.5,162.771Zm-11.7-14.5a.613.613,0,0,0-.611.664l1.11,13.232a.617.617,0,0,0,.611.562H92.5a.617.617,0,0,0,.611-.562l1.11-13.232a.613.613,0,0,0-.611-.664Z" transform="translate(-78.404 -146.485)" fill="#62768e"/>
    </g>
    <g id="Group_47431" data-name="Group 47431" transform="translate(67.372)">
      <path id="Path_96659" data-name="Path 96659" d="M68.745,5.526H85.468a.873.873,0,0,0,0-1.746H82.3v-.9A2.382,2.382,0,0,0,79.919.5H74.294a2.382,2.382,0,0,0-2.379,2.379v.9h-3.17a.873.873,0,0,0,0,1.746ZM73.66,2.879a.633.633,0,0,1,.633-.633h5.625a.633.633,0,0,1,.633.633v.862H73.66Z" transform="translate(-67.852 -0.48)" fill="#62768e"/>
      <path id="Path_96660" data-name="Path 96660" d="M84.988,5.066H68.265a.893.893,0,0,1,0-1.786h3.15V2.4a2.4,2.4,0,0,1,2.4-2.4h5.625a2.4,2.4,0,0,1,2.4,2.4v.88h3.15a.893.893,0,1,1,0,1.786ZM68.265,3.321a.852.852,0,1,0,0,1.7H84.988a.852.852,0,0,0,0-1.7H81.8V2.4A2.361,2.361,0,0,0,79.439.041H73.814A2.361,2.361,0,0,0,71.456,2.4v.921Zm11.828-.039H73.16V2.4a.655.655,0,0,1,.654-.654h5.625a.655.655,0,0,1,.654.654v.882ZM73.2,3.241h6.851V2.4a.614.614,0,0,0-.613-.613H73.814A.614.614,0,0,0,73.2,2.4v.841Z" transform="translate(-67.372)" fill="#62768e"/>
    </g>
    <g id="Group_47432" data-name="Group 47432" transform="translate(71.781 10.257)">
      <path id="Path_96661" data-name="Path 96661" d="M177.817,253.04a.873.873,0,1,0-1.742.115l.507,7.668a.873.873,0,0,0,.87.815l.058,0a.873.873,0,0,0,.813-.928Z" transform="translate(-176.053 -252.205)" fill="#62768e"/>
      <path id="Path_96662" data-name="Path 96662" d="M176.971,261.181a.9.9,0,0,1-.89-.834l-.507-7.668a.893.893,0,1,1,1.782-.118l.507,7.668a.894.894,0,0,1-.832.95Zm-.505-9.414-.057,0a.852.852,0,0,0-.794.907l.507,7.668a.852.852,0,0,0,1.7-.112l-.507-7.668A.854.854,0,0,0,176.466,251.767Z" transform="translate(-175.572 -251.726)" fill="#62768e"/>
    </g>
    <g id="Group_47433" data-name="Group 47433" transform="translate(75.734 10.257)">
      <path id="Path_96663" data-name="Path 96663" d="M273.955,252.226a.873.873,0,0,0-.873.873v7.668a.873.873,0,0,0,1.746,0V253.1A.873.873,0,0,0,273.955,252.226Z" transform="translate(-273.062 -252.206)" fill="#62768e"/>
      <path id="Path_96664" data-name="Path 96664" d="M273.475,261.181a.894.894,0,0,1-.893-.893v-7.668a.893.893,0,1,1,1.786,0v7.668A.894.894,0,0,1,273.475,261.181Zm0-9.414a.853.853,0,0,0-.852.852v7.668a.852.852,0,0,0,1.7,0v-7.668A.853.853,0,0,0,273.475,251.767Z" transform="translate(-272.582 -251.726)" fill="#62768e"/>
    </g>
    <g id="Group_47434" data-name="Group 47434" transform="translate(79.18 10.257)">
      <path id="Path_96665" data-name="Path 96665" d="M359.09,252.227a.873.873,0,0,0-.928.813l-.507,7.668a.873.873,0,0,0,.813.928l.058,0a.873.873,0,0,0,.87-.815l.507-7.668A.873.873,0,0,0,359.09,252.227Z" transform="translate(-357.632 -252.204)" fill="#62768e"/>
      <path id="Path_96666" data-name="Path 96666" d="M358.047,261.181l-.06,0a.894.894,0,0,1-.832-.95l.507-7.668a.893.893,0,1,1,1.782.118l-.507,7.668A.9.9,0,0,1,358.047,261.181Zm.505-9.414a.854.854,0,0,0-.85.8l-.507,7.669a.852.852,0,0,0,1.7.112l.507-7.668a.852.852,0,0,0-.794-.907Z" transform="translate(-357.153 -251.726)" fill="#62768e"/>
    </g>
  </g>
</svg>
