<svg xmlns="http://www.w3.org/2000/svg" width="20" height="20" viewBox="0 0 20 20">
  <g id="ic_Help_20" transform="translate(0 3)">
    <path id="Path_96908" data-name="Path 96908" d="M.781,20A.781.781,0,0,1,0,19.219V10.094A10.025,10.025,0,0,1,10,0,9.973,9.973,0,0,1,20,10.1,10.009,10.009,0,0,1,9.963,20h-.01a9.879,9.879,0,0,1-4.467-1.049,3.461,3.461,0,0,0-4,.668l-.153.153A.781.781,0,0,1,.781,20Zm3.175-2.975a4.971,4.971,0,0,1,2.231.528,8.332,8.332,0,0,0,3.767.884h.008a8.48,8.48,0,0,0,8.475-8.354A8.427,8.427,0,0,0,4.012,4.07a8.376,8.376,0,0,0-2.45,6.013s0,.005,0,.008v7.542a5.034,5.034,0,0,1,2.393-.607Z" transform="translate(0 -3)" fill="#9375f7"/>
    <path id="Path_96909" data-name="Path 96909" d="M711.579,242.2a.583.583,0,0,1-.583-.583v-.329a3.069,3.069,0,0,1,.194-1.189,2.3,2.3,0,0,1,.5-.755q.307-.3.636-.6a5.7,5.7,0,0,0,.793-.8,1.71,1.71,0,0,0,.329-1.1,1.417,1.417,0,0,0-.479-1.122,1.577,1.577,0,0,0-1.062-.419,1.623,1.623,0,0,0-1.189.449,2.675,2.675,0,0,0-.448.579.577.577,0,0,1-.738.247l-.2-.092a.584.584,0,0,1-.269-.815q.039-.07.082-.143a3.6,3.6,0,0,1,.636-.778,3.2,3.2,0,0,1,.965-.613,3.372,3.372,0,0,1,1.316-.239,3.511,3.511,0,0,1,1.518.322,2.521,2.521,0,0,1,1.077.95,2.863,2.863,0,0,1,.4,1.556,3.092,3.092,0,0,1-.209,1.219,2.988,2.988,0,0,1-.538.845q-.329.359-.688.688-.3.269-.553.539a2.03,2.03,0,0,0-.4.636,2.592,2.592,0,0,0-.15.965h0a.583.583,0,0,1-.583.583Zm.18,2.782a.987.987,0,0,1-.681-.232.77.77,0,0,1-.262-.606.79.79,0,0,1,.269-.606.958.958,0,0,1,.673-.247.932.932,0,0,1,.666.247.8.8,0,0,1,.262.606.781.781,0,0,1-.254.606A.96.96,0,0,1,711.759,244.983Z" transform="translate(-702.017 -232.442)" fill="#9375f7"/>
  </g>
</svg>
