<svg xmlns="http://www.w3.org/2000/svg" width="24" height="24" viewBox="0 0 24 24">
  <g id="Group_48853" data-name="Group 48853" transform="translate(-1126 -20)">
    <g id="Ellipse_5900" data-name="Ellipse 5900" transform="translate(1144 20)" fill="#fff" stroke="#8a6bf6" stroke-width="1.5">
      <circle cx="3" cy="3" r="3" stroke="none"/>
      <circle cx="3" cy="3" r="2.25" fill="none"/>
    </g>
    <g id="Ellipse_5904" data-name="Ellipse 5904" transform="translate(1135 20)" fill="#fff" stroke="#8a6bf6" stroke-width="1.5">
      <circle cx="3" cy="3" r="3" stroke="none"/>
      <circle cx="3" cy="3" r="2.25" fill="none"/>
    </g>
    <g id="Ellipse_5907" data-name="Ellipse 5907" transform="translate(1126 20)" fill="#fff" stroke="#8a6bf6" stroke-width="1.5">
      <circle cx="3" cy="3" r="3" stroke="none"/>
      <circle cx="3" cy="3" r="2.25" fill="none"/>
    </g>
    <g id="Ellipse_5901" data-name="Ellipse 5901" transform="translate(1144 29)" fill="#fff" stroke="#8a6bf6" stroke-width="1.5">
      <circle cx="3" cy="3" r="3" stroke="none"/>
      <circle cx="3" cy="3" r="2.25" fill="none"/>
    </g>
    <g id="Ellipse_5903" data-name="Ellipse 5903" transform="translate(1135 29)" fill="#fff" stroke="#8a6bf6" stroke-width="1.5">
      <circle cx="3" cy="3" r="3" stroke="none"/>
      <circle cx="3" cy="3" r="2.25" fill="none"/>
    </g>
    <g id="Ellipse_5906" data-name="Ellipse 5906" transform="translate(1126 29)" fill="#fff" stroke="#8a6bf6" stroke-width="1.5">
      <circle cx="3" cy="3" r="3" stroke="none"/>
      <circle cx="3" cy="3" r="2.25" fill="none"/>
    </g>
    <g id="Ellipse_5902" data-name="Ellipse 5902" transform="translate(1144 38)" fill="#fff" stroke="#8a6bf6" stroke-width="1.5">
      <circle cx="3" cy="3" r="3" stroke="none"/>
      <circle cx="3" cy="3" r="2.25" fill="none"/>
    </g>
    <g id="Ellipse_5905" data-name="Ellipse 5905" transform="translate(1135 38)" fill="#fff" stroke="#8a6bf6" stroke-width="1.5">
      <circle cx="3" cy="3" r="3" stroke="none"/>
      <circle cx="3" cy="3" r="2.25" fill="none"/>
    </g>
    <g id="Ellipse_5908" data-name="Ellipse 5908" transform="translate(1126 38)" fill="#fff" stroke="#8a6bf6" stroke-width="1.5">
      <circle cx="3" cy="3" r="3" stroke="none"/>
      <circle cx="3" cy="3" r="2.25" fill="none"/>
    </g>
  </g>
</svg>
