<svg xmlns="http://www.w3.org/2000/svg" width="64" height="64" viewBox="0 0 64 64">
  <g id="Group_52347" data-name="Group 52347" transform="translate(-433 -506)">
    <rect id="Rectangle_22447" data-name="Rectangle 22447" width="64" height="64" rx="6" transform="translate(433 506)" fill="#ff588c"/>
    <path id="Path_97621" data-name="Path 97621" d="M-12.7-11.28a6.98,6.98,0,0,1,3.184.672A4.692,4.692,0,0,1-7.48-8.672a6.123,6.123,0,0,1,.7,3.024,6.227,6.227,0,0,1-.7,3.032A4.623,4.623,0,0,1-9.5-.672,7.031,7.031,0,0,1-12.7,0h-3.2a1.169,1.169,0,0,1-.864-.3,1.169,1.169,0,0,1-.3-.864V-4.752h-.48A1.24,1.24,0,0,1-18.376-5a.869.869,0,0,1-.288-.7.869.869,0,0,1,.288-.7,1.24,1.24,0,0,1,.832-.248h.48v-3.472a1.169,1.169,0,0,1,.3-.864,1.169,1.169,0,0,1,.864-.3Zm-.16,9.264q3.584,0,3.584-3.632a3.72,3.72,0,0,0-.888-2.72,3.646,3.646,0,0,0-2.7-.9h-1.712V-6.64h2.08a1.24,1.24,0,0,1,.832.248.869.869,0,0,1,.288.7.869.869,0,0,1-.288.7,1.24,1.24,0,0,1-.832.248h-2.08v2.736ZM.184.528a.871.871,0,0,1-.344.5A.962.962,0,0,1-.712,1.2.977.977,0,0,1-1.368.952.8.8,0,0,1-1.656.32a1.277,1.277,0,0,1,.048-.336l3.664-11.52a.945.945,0,0,1,.36-.5.937.937,0,0,1,.536-.168,1,1,0,0,1,.672.248.8.8,0,0,1,.288.632,1.277,1.277,0,0,1-.048.336ZM13.432.144a8.933,8.933,0,0,1-2.352-.3A4.912,4.912,0,0,1,9.3-.992a1.123,1.123,0,0,1-.344-.376,1.087,1.087,0,0,1-.1-.5,1.081,1.081,0,0,1,.248-.7.723.723,0,0,1,.568-.3,1.081,1.081,0,0,1,.344.056,2.159,2.159,0,0,1,.408.2,5.387,5.387,0,0,0,1.392.632,5.668,5.668,0,0,0,1.552.2,3.054,3.054,0,0,0,1.616-.352,1.123,1.123,0,0,0,.56-1.008.907.907,0,0,0-.52-.8,6.682,6.682,0,0,0-1.848-.576A10.237,10.237,0,0,1,10.8-5.264,3.078,3.078,0,0,1,9.5-6.336,2.828,2.828,0,0,1,9.1-7.888,3.025,3.025,0,0,1,9.68-9.7,3.869,3.869,0,0,1,11.3-10.968a5.7,5.7,0,0,1,2.328-.456,5.949,5.949,0,0,1,3.744,1.136,1.271,1.271,0,0,1,.344.392,1.048,1.048,0,0,1,.1.488,1.081,1.081,0,0,1-.248.7A.723.723,0,0,1,17-8.4a1.084,1.084,0,0,1-.328-.048,2.279,2.279,0,0,1-.424-.208A6.729,6.729,0,0,0,15.04-9.28a4.016,4.016,0,0,0-1.4-.208,2.726,2.726,0,0,0-1.536.376,1.18,1.18,0,0,0-.56,1.032.927.927,0,0,0,.216.632,1.794,1.794,0,0,0,.72.44,11,11,0,0,0,1.432.4A7.954,7.954,0,0,1,17.04-5.376a2.487,2.487,0,0,1,.952,2.064A3,3,0,0,1,17.424-1.5a3.664,3.664,0,0,1-1.6,1.216A6.156,6.156,0,0,1,13.432.144Z" transform="translate(465 546)" fill="#fff"/>
  </g>
</svg>
